<?xml version="1.0" encoding="UTF-8" standalone="no"?>
<!-- Created with Inkscape (http://www.inkscape.org/) -->

<svg
   xmlns:dc="http://purl.org/dc/elements/1.1/"
   xmlns:cc="http://creativecommons.org/ns#"
   xmlns:rdf="http://www.w3.org/1999/02/22-rdf-syntax-ns#"
   xmlns:svg="http://www.w3.org/2000/svg"
   xmlns="http://www.w3.org/2000/svg"
   xmlns:sodipodi="http://sodipodi.sourceforge.net/DTD/sodipodi-0.dtd"
   xmlns:inkscape="http://www.inkscape.org/namespaces/inkscape"
   id="svg5462"
   version="1.1"
   inkscape:version="0.91 r13725"
   xml:space="preserve"
   width="213.5985"
   height="101.51938"
   viewBox="0 0 213.5985 101.51937"
   sodipodi:docname="phptour-logo.svg"
   inkscape:export-xdpi="426"
   inkscape:export-ydpi="426"><metadata
     id="metadata5468"><rdf:RDF><cc:Work
         rdf:about=""><dc:format>image/svg+xml</dc:format><dc:type
           rdf:resource="http://purl.org/dc/dcmitype/StillImage" /><dc:title /></cc:Work></rdf:RDF></metadata><defs
     id="defs5466"><clipPath
       clipPathUnits="userSpaceOnUse"
       id="clipPath5476"><path
         d="m 0,870.236 623.626,0 L 623.626,0 0,0 0,870.236 Z"
         id="path5478"
         inkscape:connector-curvature="0" /></clipPath><clipPath
       clipPathUnits="userSpaceOnUse"
       id="clipPath5560"><path
         d="m 0,870.236 623.626,0 L 623.626,0 0,0 0,870.236 Z"
         id="path5562"
         inkscape:connector-curvature="0" /></clipPath><clipPath
       clipPathUnits="userSpaceOnUse"
       id="clipPath5668"><path
         d="m 0,870.236 623.626,0 L 623.626,0 0,0 0,870.236 Z"
         id="path5670"
         inkscape:connector-curvature="0" /></clipPath></defs><sodipodi:namedview
     pagecolor="#ffffff"
     bordercolor="#666666"
     borderopacity="1"
     objecttolerance="10"
     gridtolerance="10"
     guidetolerance="10"
     inkscape:pageopacity="0"
     inkscape:pageshadow="2"
     inkscape:window-width="1869"
     inkscape:window-height="1056"
     id="namedview5464"
     showgrid="false"
     fit-margin-top="1"
     fit-margin-left="1"
     fit-margin-right="1"
     fit-margin-bottom="1"
     inkscape:zoom="6.616304"
     inkscape:cx="72.565636"
     inkscape:cy="50.759688"
     inkscape:window-x="51"
     inkscape:window-y="24"
     inkscape:window-maximized="1"
     inkscape:current-layer="g5470" /><g
     id="g5470"
     inkscape:groupmode="layer"
     inkscape:label="afup-logos-RGB(editable)"
     transform="matrix(1.25,0,0,-1.25,-407.67875,670.90975)"><g
       id="g5556"><g
         id="g5558"
         clip-path="url(#clipPath5560)"><g
           id="g5564"
           transform="translate(451.391,488.1593)"><path
             d="m 0,0 9.192,-15.921 0.005,0 L 18.39,0 0,0 Z"
             style="fill:#87a2d4;fill-opacity:1;fill-rule:nonzero;stroke:none"
             id="path5566"
             inkscape:connector-curvature="0" /></g><g
           id="g5568"
           transform="translate(469.7779,520.0064)"><path
             d="m 0,0 9.192,-15.921 0.005,0 L 18.39,0 0,0 Z"
             style="fill:#416bb2;fill-opacity:1;fill-rule:nonzero;stroke:none"
             id="path5570"
             inkscape:connector-curvature="0" /></g><g
           id="g5572"
           transform="translate(460.5884,472.2381)"><path
             d="m 0,0 14.138,0 c 1.314,0 2.578,0.35 3.677,0.985 L 9.192,15.921 0,0 Z"
             style="fill:#6499d1;fill-opacity:1;fill-rule:nonzero;stroke:none"
             id="path5574"
             inkscape:connector-curvature="0" /></g><g
           id="g5576"
           transform="translate(414.6145,456.3123)"><path
             d="m 0,0 14.138,0 c 1.314,0 2.578,0.35 3.677,0.985 L 9.192,15.921 0,0 Z"
             style="fill:#2d508b;fill-opacity:1;fill-rule:nonzero;stroke:none"
             id="path5578"
             inkscape:connector-curvature="0" /></g><g
           id="g5580"
           transform="translate(469.7885,520.0064)"><path
             d="m 0,0 -9.192,15.921 -0.005,0 L -18.39,0 0,0 Z"
             style="fill:#337bbd;fill-opacity:1;fill-rule:nonzero;stroke:none"
             id="path5582"
             inkscape:connector-curvature="0" /></g><g
           id="g5584"
           transform="translate(478.4064,534.9423)"><path
             d="m 0,0 c -1.1,0.635 -2.364,0.985 -3.677,0.985 l -14.138,0 9.192,-15.921 L 0,0 Z"
             style="fill:#2e73b4;fill-opacity:1;fill-rule:nonzero;stroke:none"
             id="path5586"
             inkscape:connector-curvature="0" /></g><g
           id="g5588"
           transform="translate(488.1675,520.0064)"><path
             d="m 0,0 -7.069,12.244 c -0.657,1.138 -1.592,2.057 -2.692,2.692 L -18.384,0 0,0 Z"
             style="fill:#2e63a3;fill-opacity:1;fill-rule:nonzero;stroke:none"
             id="path5590"
             inkscape:connector-curvature="0" /></g><g
           id="g5592"
           transform="translate(469.7832,488.1639)"><path
             d="M 0,0 18.384,0 18.387,0.005 9.195,15.926 0,0 Z"
             style="fill:#368ccb;fill-opacity:1;fill-rule:nonzero;stroke:none"
             id="path5594"
             inkscape:connector-curvature="0" /></g><g
           id="g5596"
           transform="translate(442.1962,472.2335)"><path
             d="M 0,0 18.384,0 18.387,0.005 9.195,15.926 0,0 Z"
             style="fill:#98a9d7;fill-opacity:1;fill-rule:nonzero;stroke:none"
             id="path5598"
             inkscape:connector-curvature="0" /></g><g
           id="g5600"
           transform="translate(496.2218,504.0852)"><path
             d="M 0,0 C 0,1.27 -0.328,2.54 -0.985,3.677 L -8.054,15.921 -17.246,0 0,0 Z"
             style="fill:#3c7fc0;fill-opacity:1;fill-rule:nonzero;stroke:none"
             id="path5602"
             inkscape:connector-curvature="0" /></g><g
           id="g5604"
           transform="translate(488.1675,488.1639)"><path
             d="m 0,0 7.069,12.244 c 0.657,1.138 0.985,2.407 0.985,3.677 l -17.246,0 L 0,0 Z"
             style="fill:#368ccb;fill-opacity:1;fill-rule:nonzero;stroke:none"
             id="path5606"
             inkscape:connector-curvature="0" /></g><g
           id="g5608"
           transform="translate(478.4038,473.2234)"><path
             d="m 0,0 c 1.1,0.635 2.035,1.554 2.692,2.692 l 7.069,12.244 -18.384,0 L 0,0 Z"
             style="fill:#4495d1;fill-opacity:1;fill-rule:nonzero;stroke:none"
             id="path5610"
             inkscape:connector-curvature="0" /></g><g
           id="g5612"
           transform="translate(433.0014,488.1593)"><path
             d="m 0,0 9.192,-15.921 -0.003,-0.005 -18.384,0 L 0,0 Z"
             style="fill:#415e99;fill-opacity:1;fill-rule:nonzero;stroke:none"
             id="path5614"
             inkscape:connector-curvature="0" /></g><g
           id="g5616"
           transform="translate(442.1909,472.2335)"><path
             d="m 0,0 -7.069,-12.244 c -0.657,-1.138 -1.592,-2.057 -2.692,-2.692 L -18.384,0 0,0 Z"
             style="fill:#264f8b;fill-opacity:1;fill-rule:nonzero;stroke:none"
             id="path5618"
             inkscape:connector-curvature="0" /></g><g
           id="g5620"
           transform="translate(451.3989,520.0064)"><path
             d="m 0,0 -14.138,0 c -1.314,0 -2.578,0.35 -3.677,0.985 L -9.192,15.921 0,0 Z"
             style="fill:#2d508b;fill-opacity:1;fill-rule:nonzero;stroke:none"
             id="path5622"
             inkscape:connector-curvature="0" /></g><g
           id="g5624"
           transform="translate(423.8014,472.2335)"><path
             d="m 0,0 -9.192,-15.921 -0.005,0 L -18.39,0 0,0 Z"
             style="fill:#32619a;fill-opacity:1;fill-rule:nonzero;stroke:none"
             id="path5626"
             inkscape:connector-curvature="0" /></g><g
           id="g5628"
           transform="translate(451.391,488.1593)"><path
             d="m 0,0 -9.192,-15.921 -0.005,0 L -18.39,0 0,0 Z"
             style="fill:#7a86ba;fill-opacity:1;fill-rule:nonzero;stroke:none"
             id="path5630"
             inkscape:connector-curvature="0" /></g><g
           id="g5632"
           transform="translate(460.5911,535.9277)"><path
             d="m 0,0 -9.192,-15.921 -0.005,0 L -18.39,0 0,0 Z"
             style="fill:#32619a;fill-opacity:1;fill-rule:nonzero;stroke:none"
             id="path5634"
             inkscape:connector-curvature="0" /></g><g
           id="g5636"
           transform="translate(396.7938,457.2976)"><path
             d="m 0,0 c -1.1,0.635 -2.035,1.554 -2.692,2.692 l -7.069,12.244 18.384,0 L 0,0 Z"
             style="fill:#2e73b4;fill-opacity:1;fill-rule:nonzero;stroke:none"
             id="path5638"
             inkscape:connector-curvature="0" /></g><g
           id="g5640"
           transform="translate(414.6092,456.3123)"><path
             d="m 0,0 -14.138,0 c -1.314,0 -2.578,0.35 -3.677,0.985 L -9.192,15.921 0,0 Z"
             style="fill:#337bbd;fill-opacity:1;fill-rule:nonzero;stroke:none"
             id="path5642"
             inkscape:connector-curvature="0" /></g><g
           id="g5644"
           transform="translate(433.5835,520.9918)"><path
             d="m 0,0 c -1.1,0.635 -2.035,1.554 -2.692,2.692 l -7.069,12.244 18.384,0 L 0,0 Z"
             style="fill:#264f8b;fill-opacity:1;fill-rule:nonzero;stroke:none"
             id="path5646"
             inkscape:connector-curvature="0" /></g></g></g><path
       inkscape:connector-curvature="0"
       id="path6312"
       style="font-variant:normal;font-weight:bold;font-stretch:condensed;font-size:medium;font-family:'Roboto Condensed';-inkscape-font-specification:RobotoCondensed-Bold;writing-mode:lr-tb;fill:#1d2241;fill-opacity:1;fill-rule:nonzero;stroke:none"
       d="m 330.98971,501.7441 0,-6 -3.44532,0 0,17.0625 5.8125,0 q 2.53125,0 4.03125,-1.57031 1.51172,-1.57032 1.51172,-4.07813 0,-2.50781 -1.48828,-3.96094 -1.48828,-1.45312 -4.125,-1.45312 l -2.29687,0 z m 0,2.87109 2.36718,0 q 0.98438,0 1.52344,0.64453 0.53906,0.64454 0.53906,1.875 0,1.27735 -0.55078,2.02735 -0.55078,0.76172 -1.47656,0.77344 l -2.40234,0 0,-5.32032 z" /><path
       inkscape:connector-curvature="0"
       id="path6314"
       style="font-variant:normal;font-weight:bold;font-stretch:condensed;font-size:medium;font-family:'Roboto Condensed';-inkscape-font-specification:RobotoCondensed-Bold;writing-mode:lr-tb;fill:#1d2241;fill-opacity:1;fill-rule:nonzero;stroke:none"
       d="m 352.99724,495.7441 -3.4336,0 0,7.30078 -5.08593,0 0,-7.30078 -3.44532,0 0,17.0625 3.44532,0 0,-6.90234 5.08593,0 0,6.90234 3.4336,0 0,-17.0625 z" /><path
       inkscape:connector-curvature="0"
       id="path6316"
       style="font-variant:normal;font-weight:bold;font-stretch:condensed;font-size:medium;font-family:'Roboto Condensed';-inkscape-font-specification:RobotoCondensed-Bold;writing-mode:lr-tb;fill:#1d2241;fill-opacity:1;fill-rule:nonzero;stroke:none"
       d="m 359.24251,501.7441 0,-6 -3.44532,0 0,17.0625 5.8125,0 q 2.53125,0 4.03125,-1.57031 1.51172,-1.57032 1.51172,-4.07813 0,-2.50781 -1.48828,-3.96094 -1.48828,-1.45312 -4.125,-1.45312 l -2.29687,0 z m 0,2.87109 2.36718,0 q 0.98438,0 1.52344,0.64453 0.53906,0.64454 0.53906,1.875 0,1.27735 -0.55078,2.02735 -0.55078,0.76172 -1.47656,0.77344 l -2.40234,0 0,-5.32032 z" /><path
       inkscape:connector-curvature="0"
       id="path6303"
       style="font-variant:normal;font-weight:normal;font-stretch:condensed;font-size:medium;font-family:'Roboto Condensed';-inkscape-font-specification:RobotoCondensed-Regular;writing-mode:lr-tb;fill:#1d2241;fill-opacity:1;fill-rule:nonzero;stroke:none"
       d="m 379.5538,510.95504 -4.48828,0 0,-15.21094 -2.14453,0 0,15.21094 -4.47656,0 0,1.85156 11.10937,0 0,-1.85156 z" /><path
       inkscape:connector-curvature="0"
       id="path6305"
       style="font-variant:normal;font-weight:normal;font-stretch:condensed;font-size:medium;font-family:'Roboto Condensed';-inkscape-font-specification:RobotoCondensed-Regular;writing-mode:lr-tb;fill:#1d2241;fill-opacity:1;fill-rule:nonzero;stroke:none"
       d="m 392.8708,502.77535 q 0,-3.49219 -1.48828,-5.37891 -1.48828,-1.88672 -4.23047,-1.88672 -2.63672,0 -4.17187,1.82813 -1.52344,1.83984 -1.58204,5.19141 l 0,3.21093 q 0,3.42188 1.51172,5.35547 1.51172,1.94531 4.21875,1.94531 2.69532,0 4.19532,-1.86328 1.51171,-1.85156 1.54687,-5.29687 l 0,-3.10547 z m -2.14453,2.98828 q 0,2.70703 -0.89063,4.01953 -0.8789,1.32422 -2.70703,1.32422 -1.76953,0 -2.68359,-1.33594 -0.90234,-1.33593 -0.91406,-3.9375 l 0,-3.05859 q 0,-2.61328 0.90234,-3.98438 0.91406,-1.37109 2.71875,-1.37109 1.80469,0 2.67188,1.26563 0.86718,1.26562 0.90234,3.8789 l 0,3.19922 z" /><path
       inkscape:connector-curvature="0"
       id="path6307"
       style="font-variant:normal;font-weight:normal;font-stretch:condensed;font-size:medium;font-family:'Roboto Condensed';-inkscape-font-specification:RobotoCondensed-Regular;writing-mode:lr-tb;fill:#1d2241;fill-opacity:1;fill-rule:nonzero;stroke:none"
       d="m 406.37862,512.8066 0,-12.12891 q -0.0234,-2.42578 -1.40625,-3.79687 -1.38281,-1.3711 -3.85547,-1.3711 -2.53125,0 -3.86719,1.33594 -1.33593,1.34766 -1.35937,3.83203 l 0,12.12891 2.13281,0 0,-12.04688 q 0,-1.72265 0.72656,-2.57812 0.73828,-0.84375 2.36719,-0.84375 1.64063,0 2.36719,0.84375 0.73828,0.85547 0.73828,2.57812 l 0,12.04688 2.15625,0 z" /><path
       inkscape:connector-curvature="0"
       id="path6309"
       style="font-variant:normal;font-weight:normal;font-stretch:condensed;font-size:medium;font-family:'Roboto Condensed';-inkscape-font-specification:RobotoCondensed-Regular;writing-mode:lr-tb;fill:#1d2241;fill-opacity:1;fill-rule:nonzero;stroke:none"
       d="m 414.9206,502.64644 -3,0 0,-6.90234 -2.15625,0 0,17.0625 4.78125,0 q 2.50781,0 3.79687,-1.3125 1.28906,-1.30078 1.28906,-3.82031 0,-1.58203 -0.70312,-2.76563 -0.69141,-1.17187 -1.96875,-1.76953 l 3.30469,-7.25391 0,-0.14062 -2.3086,0 -3.03515,6.90234 z m -3,1.83985 2.60156,0 q 1.34765,0 2.14453,0.86718 0.80859,0.86719 0.80859,2.32032 0,3.28125 -2.97656,3.28125 l -2.57812,0 0,-6.46875 z" /><path
       inkscape:connector-curvature="0"
       id="path4214"
       style="font-variant:normal;font-weight:bold;font-stretch:condensed;font-size:medium;font-family:'Roboto Condensed';-inkscape-font-specification:RobotoCondensed-Bold;writing-mode:lr-tb;fill:#36a7df;fill-opacity:1;fill-rule:nonzero;stroke:none"
       d="m 432.45327,495.7441 -10.05469,0 0,2.34375 4.61719,5.87109 q 0.8789,1.21875 1.28906,2.13282 0.42188,0.92578 0.42188,1.76953 0,1.13672 -0.39844,1.78125 -0.38672,0.64453 -1.125,0.64453 -0.8086,0 -1.28906,-0.75 -0.46875,-0.75 -0.46875,-2.10938 l -3.32813,0 q 0,1.57032 0.64453,2.8711 0.65625,1.30078 1.82813,2.01562 1.18359,0.72656 2.67187,0.72656 2.28516,0 3.53906,-1.26562 1.26563,-1.25391 1.26563,-3.57422 0,-1.44141 -0.70313,-2.92969 -0.6914,-1.47656 -2.51953,-3.64453 l -2.1914,-3.1289 5.80078,0 0,-2.75391 z" /><path
       inkscape:connector-curvature="0"
       id="path4216"
       style="font-variant:normal;font-weight:bold;font-stretch:condensed;font-size:medium;font-family:'Roboto Condensed';-inkscape-font-specification:RobotoCondensed-Bold;writing-mode:lr-tb;fill:#36a7df;fill-opacity:1;fill-rule:nonzero;stroke:none"
       d="m 444.15664,502.79879 q 0,-3.53907 -1.28906,-5.41407 -1.27734,-1.875 -3.65625,-1.875 -2.35547,0 -3.64453,1.81641 -1.27734,1.82813 -1.32422,5.22656 l 0,3.22266 q 0,3.52734 1.27734,5.39062 1.27735,1.875 3.66797,1.875 2.39063,0 3.66797,-1.85156 1.27735,-1.85156 1.30078,-5.28515 l 0,-3.10547 z m -3.32812,3.45703 q 0,2.01562 -0.39844,3.02344 -0.39844,1.00781 -1.24219,1.00781 -1.58203,0 -1.64062,-3.69141 l 0,-4.2539 q 0,-2.0625 0.39844,-3.07032 0.41015,-1.00781 1.26562,-1.00781 0.80859,0 1.19531,0.9375 0.39844,0.94922 0.42188,2.89453 l 0,4.16016 z" /><path
       inkscape:connector-curvature="0"
       id="path4218"
       style="font-variant:normal;font-weight:bold;font-stretch:condensed;font-size:medium;font-family:'Roboto Condensed';-inkscape-font-specification:RobotoCondensed-Bold;writing-mode:lr-tb;fill:#36a7df;fill-opacity:1;fill-rule:nonzero;stroke:none"
       d="m 453.15216,495.7441 -3.32812,0 0,13.03125 -3.2461,-1.25391 0,2.76563 6.22266,2.54297 0.35156,0 0,-17.08594 z" /><path
       inkscape:connector-curvature="0"
       id="path4220"
       style="font-variant:normal;font-weight:bold;font-stretch:condensed;font-size:medium;font-family:'Roboto Condensed';-inkscape-font-specification:RobotoCondensed-Bold;writing-mode:lr-tb;fill:#36a7df;fill-opacity:1;fill-rule:nonzero;stroke:none"
       d="m 467.99982,510.89644 -5.39063,-15.15234 -3.5039,0 5.41406,14.30859 -6.84375,0 0,2.75391 10.32422,0 0,-1.91016 z" /><path
       inkscape:connector-curvature="0"
       id="path4195"
       style="font-variant:normal;font-weight:normal;font-stretch:normal;font-size:medium;font-family:Belgrano;-inkscape-font-specification:Belgrano-Regular;writing-mode:lr-tb;fill:#1d2241;fill-opacity:1;fill-rule:nonzero;stroke:none"
       d="m 337.6841,479.16208 -1.62263,0 -5.73212,9.82397 0,-8.4659 1.21697,-0.58203 0,-0.77604 -4.60333,0 0,0.77604 1.60499,0.58203 0,9.73579 -1.60499,0.58203 0,0.77604 3.61565,0 5.3441,-9.20667 0,7.8486 -1.21698,0.58203 0,0.77604 4.60334,0 0,-0.77604 -1.605,-0.58203 0,-11.09386 z" /><path
       inkscape:connector-curvature="0"
       id="path4197"
       style="font-variant:normal;font-weight:normal;font-stretch:normal;font-size:medium;font-family:Belgrano;-inkscape-font-specification:Belgrano-Regular;writing-mode:lr-tb;fill:#1d2241;fill-opacity:1;fill-rule:nonzero;stroke:none"
       d="m 349.14091,480.36142 0,-1.05824 q -0.68786,-0.33511 -1.51681,-0.33511 -0.82896,0 -1.19934,0.31747 -0.35274,0.31747 -0.40566,0.91714 -0.97005,-1.23461 -2.5574,-1.23461 -1.56972,0 -2.38104,0.63494 -0.81131,0.63494 -0.81131,1.78137 0,2.20466 3.06888,2.53977 l 2.66324,0.2822 0,0.51148 q 0,1.02296 -0.4233,1.55208 -0.42329,0.52912 -1.34043,0.52912 -1.69318,0 -2.75142,-0.37038 l -0.35275,-0.12347 -0.31747,1.12879 q 0.49385,0.2822 1.49917,0.51148 1.00533,0.24692 1.86955,0.24692 1.8872,0 2.68087,-0.7584 0.79368,-0.74077 0.79368,-2.09884 l 0,-4.97371 1.48154,0 z m -5.71449,2.4163 q -0.67022,-0.0882 -1.07587,-0.40565 -0.38802,-0.31747 -0.38802,-0.86423 0,-0.52912 0.42329,-0.84659 0.44093,-0.29983 1.21697,-0.29983 1.4639,0 2.39868,0.79367 l 0,1.90483 -2.57505,-0.2822 z" /><path
       inkscape:connector-curvature="0"
       id="path4199"
       style="font-variant:normal;font-weight:normal;font-stretch:normal;font-size:medium;font-family:Belgrano;-inkscape-font-specification:Belgrano-Regular;writing-mode:lr-tb;fill:#1d2241;fill-opacity:1;fill-rule:nonzero;stroke:none"
       d="m 360.7727,479.16208 -4.63861,0 0,0.7584 1.41099,0.58203 0,4.21532 q 0,1.0406 -0.35275,1.55208 -0.33511,0.51148 -1.23461,0.51148 -1.44626,0 -2.59268,-1.14642 l 0,-5.13246 1.49917,-0.58203 0,-0.7584 -4.63861,0 0,0.7584 1.48153,0.58203 0,6.29652 -1.48153,0 0,1.05824 q 0.68785,0.3351 1.56972,0.3351 0.88186,0 1.19933,-0.38802 0.33511,-0.38802 0.37039,-1.16406 0.24692,0.31747 0.74076,0.72313 1.0406,0.82895 2.38104,0.82895 1.34043,0 2.02829,-0.77604 0.68785,-0.7584 0.68785,-2.0812 l 0,-4.83262 1.56972,-0.58203 0,-0.7584 z" /><path
       inkscape:connector-curvature="0"
       id="path4201"
       style="font-variant:normal;font-weight:normal;font-stretch:normal;font-size:medium;font-family:Belgrano;-inkscape-font-specification:Belgrano-Regular;writing-mode:lr-tb;fill:#1d2241;fill-opacity:1;fill-rule:nonzero;stroke:none"
       d="m 364.34067,483.02465 q 0,-1.51681 0.45857,-2.06357 0.45857,-0.54675 1.39335,-0.54675 0.93478,0 1.53444,0.28219 l 0.35275,-0.88186 q -0.0706,-0.0882 -0.21165,-0.22929 -0.12346,-0.14109 -0.65258,-0.38802 -0.52912,-0.22928 -1.16406,-0.22928 -1.60499,0 -2.48686,0.8995 -0.88186,0.91714 -0.88186,2.66323 l 0,4.05658 -0.93478,0 0,1.0406 1.69318,1.69318 0.8995,0 0,-1.34043 2.96307,0 0,-1.39335 -2.96307,0 0,-3.56273 z" /><path
       inkscape:connector-curvature="0"
       id="path4203"
       style="font-variant:normal;font-weight:normal;font-stretch:normal;font-size:medium;font-family:Belgrano;-inkscape-font-specification:Belgrano-Regular;writing-mode:lr-tb;fill:#1d2241;fill-opacity:1;fill-rule:nonzero;stroke:none"
       d="m 373.55093,478.98571 q -1.99302,0 -3.24527,1.12878 -1.23461,1.14643 -1.23461,3.33345 0,2.18703 1.26989,3.45691 1.26988,1.28752 2.96306,1.28752 4.02131,0 4.02131,-4.76207 l -6.54344,0 0,-0.0882 q 0,-1.25225 0.88187,-2.11648 0.88186,-0.86422 2.39867,-0.86422 0.65258,0 1.23461,0.14109 0.58203,0.15874 0.84659,0.31747 l 0.24692,0.1411 0.51148,-0.91714 q -0.0529,-0.0353 -0.15873,-0.12346 -0.0882,-0.0706 -0.40566,-0.24692 -0.31747,-0.17637 -0.68786,-0.31747 -0.93477,-0.37038 -2.09883,-0.37038 z m 2.13411,5.57338 q -0.0882,1.09351 -0.72313,1.65791 -0.61731,0.58203 -1.62263,0.58203 -0.98769,0 -1.64027,-0.5644 -0.65258,-0.54675 -0.84659,-1.67554 l 4.83262,0 z" /><path
       inkscape:connector-curvature="0"
       id="path4205"
       style="font-variant:normal;font-weight:normal;font-stretch:normal;font-size:medium;font-family:Belgrano;-inkscape-font-specification:Belgrano-Regular;writing-mode:lr-tb;fill:#1d2241;fill-opacity:1;fill-rule:nonzero;stroke:none"
       d="m 385.34477,485.45859 -1.11115,0 -0.24693,0.88187 q -0.45857,0.44093 -1.41098,0.44093 -0.95241,0 -1.48153,-0.24692 -0.51148,-0.24692 -0.51148,-0.67022 0,-0.40566 0.38802,-0.77604 0.38802,-0.35275 0.79367,-0.52912 0.40566,-0.17637 1.44626,-0.52912 1.0406,-0.35274 1.69318,-0.93477 0.67022,-0.58203 0.67022,-1.53445 0,-1.26988 -0.93478,-1.9401 -0.91714,-0.65258 -2.11647,-0.65258 -1.1817,0 -2.04593,0.29983 -0.84659,0.29984 -1.21697,0.59967 l -0.35275,0.29983 0,1.8872 1.05824,0 0.37038,-1.09352 q 0.0176,-0.0529 0.2822,-0.17637 0.82895,-0.42329 1.65791,-0.42329 0.82895,0 1.26988,0.24692 0.44093,0.26456 0.44093,0.72313 0,0.4762 -0.49384,0.8995 -0.49384,0.42329 -1.65791,0.7584 -1.14642,0.35275 -1.9401,1.00533 -0.77604,0.67022 -0.77604,1.55208 0,1.3228 0.91714,1.97538 0.93478,0.67021 2.39867,0.67021 0.72313,0 1.44626,-0.17637 0.72313,-0.17637 1.09351,-0.35274 l 0.37039,-0.17638 0,-2.02829 z" /></g></svg>
