<?xml version="1.0" encoding="UTF-8" standalone="no"?>
<svg
   xmlns:dc="http://purl.org/dc/elements/1.1/"
   xmlns:cc="http://creativecommons.org/ns#"
   xmlns:rdf="http://www.w3.org/1999/02/22-rdf-syntax-ns#"
   xmlns:svg="http://www.w3.org/2000/svg"
   xmlns="http://www.w3.org/2000/svg"
   viewBox="0 0 432.34625 64.00337"
   height="64.003372"
   width="432.34625"
   xml:space="preserve"
   version="1.1"
   id="svg6773"><metadata
     id="metadata6779"><rdf:RDF><cc:Work
         rdf:about=""><dc:format>image/svg+xml</dc:format><dc:type
           rdf:resource="http://purl.org/dc/dcmitype/StillImage" /><dc:title></dc:title></cc:Work></rdf:RDF></metadata><defs
     id="defs6777"><clipPath
       id="clipPath6787"
       clipPathUnits="userSpaceOnUse"><path
         id="path6789"
         d="m 0,870.236 623.626,0 L 623.626,0 0,0 0,870.236 Z" /></clipPath><clipPath
       id="clipPath6799"
       clipPathUnits="userSpaceOnUse"><path
         id="path6801"
         d="m 0,870.236 623.626,0 L 623.626,0 0,0 0,870.236 Z" /></clipPath><clipPath
       id="clipPath7071"
       clipPathUnits="userSpaceOnUse"><path
         id="path7073"
         d="m 0,870.236 623.626,0 L 623.626,0 0,0 0,870.236 Z" /></clipPath></defs><g
     transform="matrix(1.25,0,0,-1.25,-174.39725,903.83975)"
     id="g6781"><path
       d="m 144.7678,692.3506 c -0.664,-0.532 -0.996,-1.248 -0.996,-2.149 0,-0.901 0.361,-1.61 1.084,-2.126 0.724,-0.517 1.735,-0.775 3.035,-0.775 2.451,0 4.459,0.664 6.025,1.993 l 0,4.785 -6.468,-0.709 c -1.122,-0.148 -2.016,-0.487 -2.68,-1.019 m 17.033,-5.05 0,-2.658 c -1.151,-0.561 -2.422,-0.842 -3.808,-0.842 -1.389,0 -2.387,0.265 -2.992,0.797 -0.605,0.532 -0.952,1.299 -1.041,2.304 -1.624,-2.068 -3.758,-3.101 -6.401,-3.101 -2.644,0 -4.645,0.531 -6.003,1.594 -1.358,1.064 -2.038,2.555 -2.038,4.475 0,3.691 2.57,5.818 7.709,6.379 l 6.689,0.709 0,1.285 c 0,1.712 -0.354,3.012 -1.063,3.899 -0.709,0.886 -1.831,1.329 -3.366,1.329 -2.836,0 -5.14,-0.31 -6.912,-0.931 l -0.886,-0.31 -0.798,2.835 c 0.827,0.473 2.082,0.909 3.766,1.307 1.683,0.399 3.249,0.599 4.696,0.599 3.16,0 5.405,-0.628 6.733,-1.883 1.33,-1.256 1.995,-3.021 1.995,-5.295 l 0,-12.492 3.72,0 z"
       style="fill:#18213e;fill-opacity:1;fill-rule:nonzero;stroke:none"
       id="path6805" /><path
       d="m 176.4963,684.2877 -11.74,0 0,1.905 3.721,1.462 0,15.195 -3.455,0 0,2.658 3.455,1.418 0,2.658 c 0,2.924 0.746,5.146 2.238,6.667 1.491,1.521 3.595,2.282 6.312,2.282 1.065,0 2.045,-0.155 2.948,-0.465 0.9,-0.31 1.527,-0.628 1.882,-0.952 l 0.576,-0.488 -1.197,-2.303 c -0.826,0.472 -2.059,0.708 -3.699,0.708 -1.639,0 -2.85,-0.48 -3.633,-1.439 -0.783,-0.961 -1.174,-2.71 -1.174,-5.25 l 0,-1.905 7.133,0 0,-3.589 -7.133,0 0,-15.195 3.766,-1.462 0,-1.905 z"
       style="fill:#18213e;fill-opacity:1;fill-rule:nonzero;stroke:none"
       id="path6809" /><path
       d="m 208.4426,687.3004 0,-2.658 c -1.151,-0.561 -2.452,-0.842 -3.899,-0.842 -1.448,0 -2.452,0.303 -3.012,0.908 -0.562,0.605 -0.887,1.499 -0.975,2.68 -0.385,-0.442 -0.827,-0.886 -1.329,-1.329 -0.503,-0.443 -1.337,-0.93 -2.503,-1.462 -1.168,-0.531 -2.386,-0.797 -3.655,-0.797 -2.304,0 -4.031,0.643 -5.183,1.927 -1.152,1.285 -1.728,3.035 -1.728,5.25 l 0,12.493 -3.721,0 0,2.658 c 1.151,0.561 2.487,0.842 4.009,0.842 1.52,0 2.548,-0.362 3.079,-1.086 0.531,-0.724 0.797,-1.824 0.797,-3.3 l 0,-10.056 c 0,-1.744 0.289,-3.043 0.864,-3.899 0.576,-0.857 1.617,-1.285 3.124,-1.285 1.506,0 2.791,0.288 3.854,0.864 1.063,0.576 1.861,1.174 2.392,1.794 l 0,13.468 -3.721,0 0,2.658 c 1.151,0.561 2.487,0.842 4.008,0.842 1.522,0 2.548,-0.362 3.08,-1.086 0.532,-0.724 0.797,-1.824 0.797,-3.3 l 0,-15.284 3.722,0 z"
       style="fill:#18213e;fill-opacity:1;fill-rule:nonzero;stroke:none"
       id="path6813" /><path
       d="m 221.5334,687.3443 c 2.392,0 4.26,0.709 5.604,2.126 1.343,1.418 2.015,3.396 2.015,5.937 0,2.54 -0.65,4.526 -1.949,5.958 -1.3,1.433 -2.688,2.149 -4.164,2.149 -2.569,0 -4.49,-0.813 -5.76,-2.436 l 0,-12.937 c 1.654,-0.531 3.072,-0.797 4.254,-0.797 m -0.532,-15.063 -11.652,0 0,1.906 3.766,1.462 0,27.998 -3.721,0 0,2.437 c 1.152,0.56 2.414,0.842 3.787,0.842 1.373,0 2.356,-0.252 2.947,-0.754 0.591,-0.502 0.944,-1.24 1.063,-2.215 1.446,2.009 3.603,3.013 6.468,3.013 2.333,0 4.489,-0.798 6.468,-2.393 1.004,-0.827 1.808,-2.001 2.414,-3.522 0.605,-1.521 0.908,-3.285 0.908,-5.294 0,-2.008 -0.34,-3.803 -1.018,-5.382 -0.68,-1.58 -1.595,-2.828 -2.748,-3.743 -2.333,-1.861 -5.049,-2.792 -8.15,-2.792 -1.24,0 -2.658,0.208 -4.254,0.621 l 0,-8.816 3.722,-1.462 0,-1.906 z"
       style="fill:#18213e;fill-opacity:1;fill-rule:nonzero;stroke:none"
       id="path6817" /><path
       d="m 306.8391,701.0894 -1.201,3.184 -1.155,-3.184 2.356,0 z m 3.251,-3.648 -3.081,0 0,0.499 0.929,0.374 -0.805,2.004 -2.945,0 -0.805,-2.004 0.906,-0.374 0,-0.499 -2.968,0 0,0.499 0.929,0.374 2.787,7.126 1.168,0 2.9,-7.126 0.985,-0.374 0,-0.499 z"
       style="fill:#18213e;fill-opacity:1;fill-rule:nonzero;stroke:none"
       id="path6821" /><path
       d="m 315.0002,701.4859 -0.715,0 -0.158,0.566 c -0.196,0.189 -0.498,0.284 -0.906,0.284 -0.409,0 -0.723,-0.053 -0.946,-0.159 -0.223,-0.106 -0.335,-0.248 -0.335,-0.424 0,-0.178 0.083,-0.344 0.249,-0.499 0.166,-0.155 0.336,-0.27 0.51,-0.346 0.174,-0.075 0.485,-0.189 0.93,-0.34 0.445,-0.151 0.81,-0.351 1.094,-0.601 0.283,-0.249 0.423,-0.577 0.423,-0.985 0,-0.544 -0.197,-0.957 -0.593,-1.24 -0.397,-0.283 -0.85,-0.425 -1.361,-0.425 -0.509,0 -0.948,0.064 -1.313,0.192 -0.367,0.128 -0.629,0.257 -0.788,0.385 l -0.227,0.194 0,1.211 0.68,0 0.238,-0.702 c 0.007,-0.023 0.068,-0.06 0.181,-0.113 0.355,-0.182 0.711,-0.272 1.065,-0.272 0.355,0 0.627,0.054 0.816,0.164 0.189,0.109 0.283,0.264 0.283,0.464 0,0.201 -0.106,0.391 -0.316,0.573 -0.212,0.181 -0.566,0.345 -1.061,0.493 -0.494,0.146 -0.91,0.362 -1.246,0.645 -0.336,0.284 -0.504,0.614 -0.504,0.992 0,0.566 0.199,0.991 0.596,1.274 0.396,0.283 0.908,0.425 1.535,0.425 0.308,0 0.619,-0.038 0.928,-0.113 0.31,-0.076 0.545,-0.152 0.703,-0.227 l 0.238,-0.113 0,-1.303 z"
       style="fill:#18213e;fill-opacity:1;fill-rule:nonzero;stroke:none"
       id="path6825" /><path
       d="m 320.4807,701.4859 -0.714,0 -0.158,0.566 c -0.196,0.189 -0.499,0.284 -0.907,0.284 -0.408,0 -0.723,-0.053 -0.946,-0.159 -0.222,-0.106 -0.334,-0.248 -0.334,-0.424 0,-0.178 0.082,-0.344 0.249,-0.499 0.166,-0.155 0.336,-0.27 0.51,-0.346 0.174,-0.075 0.484,-0.189 0.929,-0.34 0.445,-0.151 0.81,-0.351 1.094,-0.601 0.283,-0.249 0.424,-0.577 0.424,-0.985 0,-0.544 -0.198,-0.957 -0.594,-1.24 -0.397,-0.283 -0.85,-0.425 -1.36,-0.425 -0.509,0 -0.948,0.064 -1.314,0.192 -0.367,0.128 -0.629,0.257 -0.787,0.385 l -0.227,0.194 0,1.211 0.68,0 0.238,-0.702 c 0.007,-0.023 0.068,-0.06 0.181,-0.113 0.354,-0.182 0.71,-0.272 1.065,-0.272 0.355,0 0.627,0.054 0.816,0.164 0.188,0.109 0.283,0.264 0.283,0.464 0,0.201 -0.107,0.391 -0.317,0.573 -0.211,0.181 -0.565,0.345 -1.06,0.493 -0.495,0.146 -0.91,0.362 -1.246,0.645 -0.336,0.284 -0.504,0.614 -0.504,0.992 0,0.566 0.198,0.991 0.595,1.274 0.396,0.283 0.908,0.425 1.535,0.425 0.309,0 0.619,-0.038 0.929,-0.113 0.309,-0.076 0.544,-0.152 0.702,-0.227 l 0.238,-0.113 0,-1.303 z"
       style="fill:#18213e;fill-opacity:1;fill-rule:nonzero;stroke:none"
       id="path6829" /><path
       d="m 323.3127,698.7613 c 0.34,-0.366 0.775,-0.55 1.304,-0.55 0.528,0 0.963,0.184 1.302,0.55 0.34,0.366 0.51,0.859 0.51,1.479 0,0.619 -0.172,1.125 -0.515,1.517 -0.344,0.394 -0.777,0.59 -1.297,0.59 -0.522,0 -0.954,-0.196 -1.298,-0.59 -0.344,-0.392 -0.516,-0.898 -0.516,-1.517 0,-0.62 0.17,-1.113 0.51,-1.479 m 3.389,-0.623 c -0.552,-0.548 -1.246,-0.821 -2.085,-0.821 -0.839,0 -1.534,0.273 -2.085,0.821 -0.551,0.547 -0.827,1.259 -0.827,2.136 0,0.876 0.276,1.59 0.827,2.14 0.551,0.552 1.246,0.827 2.085,0.827 0.839,0 1.533,-0.275 2.085,-0.827 0.55,-0.55 0.826,-1.264 0.826,-2.14 0,-0.877 -0.276,-1.589 -0.826,-2.136"
       style="fill:#18213e;fill-opacity:1;fill-rule:nonzero;stroke:none"
       id="path6833" /><path
       d="m 331.4807,697.3277 c -0.838,0 -1.527,0.245 -2.068,0.736 -0.539,0.492 -0.81,1.201 -0.81,2.13 0,0.514 0.103,0.973 0.306,1.377 0.204,0.404 0.472,0.724 0.804,0.957 0.688,0.477 1.44,0.714 2.255,0.714 0.249,0 0.495,-0.03 0.737,-0.091 0.241,-0.06 0.422,-0.12 0.544,-0.18 l 0.181,-0.103 0,-1.337 -0.691,0 -0.158,0.692 c -0.107,0.083 -0.311,0.125 -0.613,0.125 -0.649,0 -1.19,-0.197 -1.62,-0.59 -0.43,-0.393 -0.646,-0.887 -0.646,-1.484 0,-0.596 0.187,-1.09 0.561,-1.478 0.374,-0.39 0.87,-0.584 1.489,-0.584 0.303,0 0.584,0.032 0.844,0.096 0.262,0.064 0.445,0.13 0.551,0.199 l 0.158,0.091 0.328,-0.59 c -0.022,-0.015 -0.054,-0.039 -0.095,-0.074 -0.042,-0.034 -0.131,-0.088 -0.267,-0.164 -0.136,-0.076 -0.279,-0.143 -0.431,-0.204 -0.408,-0.159 -0.861,-0.238 -1.359,-0.238"
       style="fill:#18213e;fill-opacity:1;fill-rule:nonzero;stroke:none"
       id="path6837" /><path
       d="m 336.679,704.5445 c -0.174,-0.174 -0.386,-0.26 -0.635,-0.26 -0.249,0 -0.46,0.086 -0.634,0.26 -0.173,0.174 -0.261,0.386 -0.261,0.635 0,0.249 0.088,0.461 0.261,0.635 0.174,0.173 0.385,0.26 0.634,0.26 0.249,0 0.461,-0.087 0.635,-0.26 0.173,-0.174 0.261,-0.386 0.261,-0.635 0,-0.249 -0.088,-0.461 -0.261,-0.635 m 0.917,-7.104 -2.979,0 0,0.488 0.952,0.374 0,4.045 -0.952,0 0,0.679 c 0.294,0.144 0.636,0.215 1.026,0.215 0.389,0 0.65,-0.093 0.787,-0.277 0.136,-0.186 0.203,-0.467 0.203,-0.844 l 0,-3.818 0.963,-0.374 0,-0.488 z"
       style="fill:#18213e;fill-opacity:1;fill-rule:nonzero;stroke:none"
       id="path6841" /><path
       d="m 339.7805,699.5035 c -0.17,-0.136 -0.255,-0.319 -0.255,-0.55 0,-0.23 0.093,-0.412 0.277,-0.544 0.186,-0.132 0.444,-0.198 0.777,-0.198 0.627,0 1.14,0.17 1.541,0.51 l 0,1.223 -1.654,-0.18 c -0.288,-0.038 -0.515,-0.125 -0.686,-0.261 m 4.356,-1.292 0,-0.68 c -0.294,-0.143 -0.619,-0.215 -0.974,-0.215 -0.356,0 -0.61,0.068 -0.765,0.204 -0.155,0.136 -0.243,0.333 -0.266,0.589 -0.415,-0.529 -0.961,-0.793 -1.637,-0.793 -0.676,0 -1.188,0.136 -1.535,0.408 -0.348,0.272 -0.522,0.653 -0.522,1.144 0,0.945 0.658,1.489 1.972,1.632 l 1.711,0.181 0,0.329 c 0,0.437 -0.091,0.77 -0.273,0.997 -0.18,0.226 -0.467,0.34 -0.86,0.34 -0.726,0 -1.314,-0.079 -1.768,-0.239 l -0.226,-0.079 -0.204,0.725 c 0.211,0.121 0.533,0.232 0.963,0.335 0.43,0.102 0.831,0.152 1.201,0.152 0.808,0 1.383,-0.16 1.723,-0.481 0.339,-0.321 0.509,-0.773 0.509,-1.354 l 0,-3.195 0.951,0 z"
       style="fill:#18213e;fill-opacity:1;fill-rule:nonzero;stroke:none"
       id="path6845" /><path
       d="m 346.5735,698.5972 c 0.196,-0.234 0.495,-0.352 0.896,-0.352 0.4,0 0.728,0.061 0.985,0.182 l 0.226,-0.566 c -0.03,-0.038 -0.073,-0.087 -0.129,-0.148 -0.057,-0.06 -0.2,-0.141 -0.426,-0.244 -0.227,-0.101 -0.475,-0.152 -0.747,-0.152 -0.688,0 -1.22,0.194 -1.598,0.583 -0.378,0.388 -0.566,0.957 -0.566,1.705 l 0,2.606 -0.601,0 0,0.668 1.088,1.088 0.578,0 0,-0.861 1.902,0 0,-0.895 -1.902,0 0,-2.289 c 0,-0.649 0.098,-1.092 0.294,-1.325"
       style="fill:#18213e;fill-opacity:1;fill-rule:nonzero;stroke:none"
       id="path6849" /><path
       d="m 351.594,704.5445 c -0.174,-0.174 -0.385,-0.26 -0.635,-0.26 -0.249,0 -0.461,0.086 -0.635,0.26 -0.173,0.174 -0.259,0.386 -0.259,0.635 0,0.249 0.086,0.461 0.259,0.635 0.174,0.173 0.386,0.26 0.635,0.26 0.25,0 0.461,-0.087 0.635,-0.26 0.174,-0.174 0.26,-0.386 0.26,-0.635 0,-0.249 -0.086,-0.461 -0.26,-0.635 m 0.918,-7.104 -2.981,0 0,0.488 0.953,0.374 0,4.045 -0.953,0 0,0.679 c 0.295,0.144 0.637,0.215 1.026,0.215 0.389,0 0.652,-0.093 0.787,-0.277 0.137,-0.186 0.205,-0.467 0.205,-0.844 l 0,-3.818 0.963,-0.374 0,-0.488 z"
       style="fill:#18213e;fill-opacity:1;fill-rule:nonzero;stroke:none"
       id="path6853" /><path
       d="m 354.7717,698.7613 c 0.34,-0.366 0.774,-0.55 1.303,-0.55 0.529,0 0.963,0.184 1.302,0.55 0.34,0.366 0.51,0.859 0.51,1.479 0,0.619 -0.172,1.125 -0.515,1.517 -0.344,0.394 -0.776,0.59 -1.297,0.59 -0.522,0 -0.953,-0.196 -1.297,-0.59 -0.344,-0.392 -0.516,-0.898 -0.516,-1.517 0,-0.62 0.17,-1.113 0.51,-1.479 m 3.388,-0.623 c -0.552,-0.548 -1.246,-0.821 -2.085,-0.821 -0.838,0 -1.533,0.273 -2.084,0.821 -0.552,0.547 -0.828,1.259 -0.828,2.136 0,0.876 0.276,1.59 0.828,2.14 0.551,0.552 1.246,0.827 2.084,0.827 0.839,0 1.533,-0.275 2.085,-0.827 0.551,-0.55 0.827,-1.264 0.827,-2.14 0,-0.877 -0.276,-1.589 -0.827,-2.136"
       style="fill:#18213e;fill-opacity:1;fill-rule:nonzero;stroke:none"
       id="path6857" /><path
       d="m 366.5647,697.441 -2.98,0 0,0.487 0.907,0.374 0,2.708 c 0,0.446 -0.073,0.778 -0.222,0.997 -0.146,0.219 -0.413,0.329 -0.799,0.329 -0.619,0 -1.174,-0.246 -1.665,-0.737 l 0,-3.297 0.964,-0.374 0,-0.487 -2.98,0 0,0.487 0.951,0.374 0,4.045 -0.951,0 0,0.68 c 0.295,0.143 0.63,0.215 1.007,0.215 0.379,0 0.637,-0.083 0.778,-0.249 0.138,-0.166 0.217,-0.415 0.231,-0.748 0.107,0.136 0.265,0.291 0.476,0.465 0.446,0.354 0.956,0.532 1.529,0.532 0.574,0 1.01,-0.164 1.304,-0.492 0.294,-0.33 0.442,-0.777 0.442,-1.343 l 0,-3.105 1.008,-0.374 0,-0.487 z"
       style="fill:#18213e;fill-opacity:1;fill-rule:nonzero;stroke:none"
       id="path6861" /><path
       d="m 304.8909,684.2505 -3.003,0 0,0.487 0.952,0.373 0,3.887 -0.885,0 0,0.68 0.885,0.362 0,0.68 c 0,0.748 0.191,1.316 0.572,1.705 0.381,0.389 0.919,0.584 1.614,0.584 0.272,0 0.523,-0.04 0.754,-0.119 0.23,-0.079 0.39,-0.16 0.482,-0.244 l 0.147,-0.124 -0.306,-0.589 c -0.212,0.12 -0.526,0.18 -0.946,0.18 -0.419,0 -0.729,-0.123 -0.929,-0.368 -0.2,-0.245 -0.3,-0.693 -0.3,-1.343 l 0,-0.486 1.823,0 0,-0.918 -1.823,0 0,-3.887 0.963,-0.373 0,-0.487 z"
       style="fill:#18213e;fill-opacity:1;fill-rule:nonzero;stroke:none"
       id="path6865" /><path
       d="m 309.6399,684.2505 -2.979,0 0,0.487 0.951,0.373 0,4.045 -0.951,0 0,0.68 c 0.294,0.144 0.626,0.216 0.996,0.216 0.371,0 0.627,-0.079 0.771,-0.239 0.143,-0.158 0.223,-0.392 0.237,-0.702 0.076,0.227 0.231,0.431 0.465,0.612 0.28,0.219 0.65,0.329 1.111,0.329 0.203,0 0.398,-0.027 0.583,-0.079 0.184,-0.054 0.319,-0.107 0.402,-0.16 l 0.136,-0.079 0,-1.337 -0.68,0 -0.146,0.68 c -0.046,0.045 -0.17,0.069 -0.375,0.069 -0.204,0 -0.401,-0.029 -0.588,-0.085 -0.19,-0.057 -0.337,-0.127 -0.443,-0.21 -0.212,-0.182 -0.362,-0.367 -0.454,-0.555 l 0,-3.185 0.964,-0.373 0,-0.487 z"
       style="fill:#18213e;fill-opacity:1;fill-rule:nonzero;stroke:none"
       id="path6869" /><path
       d="m 313.428,686.3121 c -0.17,-0.136 -0.255,-0.319 -0.255,-0.549 0,-0.23 0.093,-0.412 0.278,-0.544 0.185,-0.133 0.444,-0.198 0.776,-0.198 0.627,0 1.14,0.17 1.541,0.51 l 0,1.223 -1.654,-0.181 c -0.288,-0.038 -0.516,-0.125 -0.686,-0.261 m 4.356,-1.291 0,-0.68 c -0.294,-0.143 -0.619,-0.216 -0.973,-0.216 -0.356,0 -0.612,0.069 -0.766,0.205 -0.154,0.135 -0.243,0.332 -0.265,0.588 -0.416,-0.528 -0.962,-0.793 -1.638,-0.793 -0.676,0 -1.188,0.136 -1.535,0.409 -0.347,0.271 -0.521,0.653 -0.521,1.144 0,0.944 0.656,1.488 1.971,1.631 l 1.711,0.182 0,0.328 c 0,0.438 -0.091,0.77 -0.272,0.997 -0.181,0.226 -0.468,0.34 -0.861,0.34 -0.725,0 -1.314,-0.079 -1.768,-0.238 l -0.226,-0.08 -0.204,0.726 c 0.212,0.121 0.532,0.232 0.963,0.334 0.43,0.102 0.831,0.153 1.201,0.153 0.807,0 1.382,-0.161 1.722,-0.481 0.339,-0.321 0.509,-0.773 0.509,-1.355 l 0,-3.194 0.952,0 z"
       style="fill:#18213e;fill-opacity:1;fill-rule:nonzero;stroke:none"
       id="path6873" /><path
       d="m 325.4631,684.2505 -2.98,0 0,0.487 0.906,0.373 0,2.708 c 0,0.447 -0.073,0.779 -0.221,0.997 -0.146,0.219 -0.414,0.33 -0.799,0.33 -0.619,0 -1.174,-0.247 -1.666,-0.737 l 0,-3.298 0.964,-0.373 0,-0.487 -2.979,0 0,0.487 0.951,0.373 0,4.045 -0.951,0 0,0.68 c 0.295,0.144 0.63,0.216 1.007,0.216 0.378,0 0.637,-0.083 0.777,-0.249 0.139,-0.167 0.217,-0.416 0.231,-0.748 0.107,0.135 0.266,0.29 0.477,0.464 0.445,0.355 0.955,0.533 1.529,0.533 0.574,0 1.009,-0.164 1.303,-0.493 0.295,-0.329 0.442,-0.777 0.442,-1.343 l 0,-3.105 1.009,-0.373 0,-0.487 z"
       style="fill:#18213e;fill-opacity:1;fill-rule:nonzero;stroke:none"
       id="path6877" /><path
       d="m 328.0022,682.9927 c 0.174,-0.188 0.408,-0.283 0.703,-0.283 0.295,0 0.442,0.129 0.442,0.385 0,0.287 -0.272,0.43 -0.816,0.43 l 0.237,0.635 c -0.754,0.061 -1.369,0.332 -1.839,0.815 -0.473,0.484 -0.709,1.16 -0.709,2.029 0,0.513 0.101,0.972 0.306,1.377 0.203,0.403 0.471,0.722 0.804,0.957 0.687,0.475 1.438,0.714 2.255,0.714 0.249,0 0.494,-0.031 0.736,-0.091 0.242,-0.061 0.423,-0.121 0.544,-0.182 l 0.181,-0.101 0,-1.337 -0.692,0 -0.158,0.691 c -0.105,0.083 -0.309,0.124 -0.611,0.124 -0.651,0 -1.19,-0.196 -1.62,-0.589 -0.431,-0.392 -0.646,-0.887 -0.646,-1.484 0,-0.597 0.187,-1.09 0.561,-1.479 0.373,-0.388 0.87,-0.583 1.49,-0.583 0.301,0 0.583,0.032 0.844,0.096 0.259,0.064 0.443,0.131 0.549,0.198 l 0.159,0.091 0.329,-0.589 c -0.182,-0.151 -0.461,-0.297 -0.84,-0.436 -0.377,-0.14 -0.751,-0.217 -1.121,-0.233 l -0.113,-0.283 c 0.204,-0.007 0.378,-0.079 0.521,-0.215 0.143,-0.136 0.215,-0.334 0.215,-0.595 0,-0.26 -0.096,-0.466 -0.289,-0.617 -0.193,-0.151 -0.409,-0.227 -0.651,-0.227 -0.416,0 -0.722,0.098 -0.917,0.295 l -0.091,0.091 0.237,0.396 z"
       style="fill:#18213e;fill-opacity:1;fill-rule:nonzero;stroke:none"
       id="path6881" /><path
       d="m 333.2971,686.3121 c -0.17,-0.136 -0.256,-0.319 -0.256,-0.549 0,-0.23 0.094,-0.412 0.278,-0.544 0.185,-0.133 0.444,-0.198 0.777,-0.198 0.627,0 1.14,0.17 1.541,0.51 l 0,1.223 -1.654,-0.181 c -0.288,-0.038 -0.516,-0.125 -0.686,-0.261 m 4.355,-1.291 0,-0.68 c -0.293,-0.143 -0.619,-0.216 -0.973,-0.216 -0.356,0 -0.611,0.069 -0.765,0.205 -0.155,0.135 -0.244,0.332 -0.266,0.588 -0.415,-0.528 -0.962,-0.793 -1.638,-0.793 -0.676,0 -1.188,0.136 -1.535,0.409 -0.347,0.271 -0.521,0.653 -0.521,1.144 0,0.944 0.657,1.488 1.972,1.631 l 1.711,0.182 0,0.328 c 0,0.438 -0.092,0.77 -0.273,0.997 -0.18,0.226 -0.467,0.34 -0.86,0.34 -0.726,0 -1.314,-0.079 -1.768,-0.238 l -0.226,-0.08 -0.205,0.726 c 0.212,0.121 0.533,0.232 0.963,0.334 0.431,0.102 0.832,0.153 1.201,0.153 0.808,0 1.383,-0.161 1.723,-0.481 0.339,-0.321 0.509,-0.773 0.509,-1.355 l 0,-3.194 0.951,0 z"
       style="fill:#18213e;fill-opacity:1;fill-rule:nonzero;stroke:none"
       id="path6885" /><path
       d="m 340.6292,691.3541 c -0.174,-0.174 -0.385,-0.261 -0.635,-0.261 -0.248,0 -0.46,0.087 -0.634,0.261 -0.173,0.174 -0.26,0.385 -0.26,0.635 0,0.249 0.087,0.46 0.26,0.634 0.174,0.173 0.386,0.26 0.634,0.26 0.25,0 0.461,-0.087 0.635,-0.26 0.174,-0.174 0.261,-0.385 0.261,-0.634 0,-0.25 -0.087,-0.461 -0.261,-0.635 m 0.918,-7.104 -2.98,0 0,0.488 0.953,0.373 0,4.045 -0.953,0 0,0.679 c 0.294,0.144 0.636,0.216 1.026,0.216 0.389,0 0.651,-0.093 0.787,-0.277 0.136,-0.186 0.204,-0.467 0.204,-0.845 l 0,-3.818 0.963,-0.373 0,-0.488 z"
       style="fill:#18213e;fill-opacity:1;fill-rule:nonzero;stroke:none"
       id="path6889" /><path
       d="m 346.6711,688.2955 -0.714,0 -0.158,0.566 c -0.197,0.189 -0.498,0.284 -0.906,0.284 -0.409,0 -0.724,-0.054 -0.947,-0.16 -0.223,-0.105 -0.335,-0.247 -0.335,-0.424 0,-0.178 0.084,-0.344 0.25,-0.498 0.166,-0.156 0.336,-0.271 0.51,-0.346 0.174,-0.076 0.484,-0.19 0.93,-0.34 0.445,-0.151 0.809,-0.352 1.093,-0.601 0.283,-0.249 0.424,-0.578 0.424,-0.985 0,-0.544 -0.198,-0.958 -0.594,-1.241 -0.397,-0.283 -0.85,-0.425 -1.361,-0.425 -0.509,0 -0.947,0.065 -1.313,0.192 -0.366,0.129 -0.629,0.257 -0.788,0.386 l -0.227,0.193 0,1.211 0.68,0 0.238,-0.702 c 0.008,-0.022 0.069,-0.06 0.182,-0.113 0.355,-0.182 0.71,-0.271 1.064,-0.271 0.356,0 0.627,0.054 0.817,0.164 0.188,0.109 0.283,0.264 0.283,0.464 0,0.2 -0.106,0.391 -0.317,0.572 -0.212,0.181 -0.566,0.345 -1.06,0.493 -0.494,0.147 -0.91,0.362 -1.246,0.645 -0.336,0.284 -0.504,0.615 -0.504,0.993 0,0.566 0.198,0.991 0.595,1.274 0.396,0.283 0.908,0.425 1.535,0.425 0.309,0 0.619,-0.038 0.929,-0.113 0.31,-0.077 0.544,-0.152 0.703,-0.227 l 0.237,-0.113 0,-1.303 z"
       style="fill:#18213e;fill-opacity:1;fill-rule:nonzero;stroke:none"
       id="path6893" /><path
       d="m 351.717,688.7877 c -0.268,0.245 -0.615,0.368 -1.042,0.368 -0.427,0 -0.78,-0.119 -1.06,-0.356 -0.279,-0.239 -0.461,-0.599 -0.543,-1.082 l 3.104,0 c -0.037,0.467 -0.19,0.825 -0.459,1.07 m -0.912,-4.65 c -0.854,0 -1.546,0.243 -2.078,0.73 -0.533,0.487 -0.799,1.199 -0.799,2.136 0,0.936 0.271,1.679 0.815,2.226 0.544,0.547 1.179,0.822 1.904,0.822 1.722,0 2.584,-1.02 2.584,-3.06 l -4.204,0 0,-0.057 c 0,-0.536 0.188,-0.989 0.566,-1.359 0.378,-0.37 0.892,-0.555 1.541,-0.555 0.279,0 0.544,0.032 0.793,0.096 0.249,0.065 0.431,0.131 0.544,0.198 l 0.158,0.091 0.329,-0.589 c -0.022,-0.015 -0.055,-0.04 -0.096,-0.074 -0.041,-0.033 -0.13,-0.089 -0.266,-0.164 -0.137,-0.075 -0.283,-0.144 -0.442,-0.204 -0.401,-0.158 -0.85,-0.237 -1.349,-0.237"
       style="fill:#18213e;fill-opacity:1;fill-rule:nonzero;stroke:none"
       id="path6897" /><path
       d="m 360.6731,689.1558 c -0.672,0 -1.214,-0.183 -1.626,-0.549 -0.411,-0.367 -0.617,-0.883 -0.617,-1.547 0,-0.665 0.164,-1.18 0.493,-1.547 0.328,-0.366 0.685,-0.548 1.07,-0.548 0.65,0 1.137,0.237 1.462,0.713 l 0,3.308 c -0.34,0.113 -0.6,0.17 -0.782,0.17 m 2.799,-4.135 0,-0.679 c -0.295,-0.144 -0.618,-0.216 -0.969,-0.216 -0.351,0 -0.604,0.064 -0.759,0.192 -0.155,0.129 -0.248,0.317 -0.277,0.567 -0.348,-0.499 -0.893,-0.748 -1.633,-0.748 -0.596,0 -1.147,0.205 -1.653,0.612 -0.257,0.212 -0.463,0.511 -0.618,0.901 -0.155,0.389 -0.232,0.84 -0.232,1.354 0,0.513 0.102,0.972 0.306,1.377 0.204,0.403 0.473,0.722 0.805,0.957 0.671,0.475 1.416,0.714 2.231,0.714 0.241,0 0.503,-0.053 0.782,-0.16 l 0,2.21 -0.952,0 0,0.68 c 0.295,0.144 0.636,0.215 1.025,0.215 0.39,0 0.652,-0.093 0.789,-0.278 0.134,-0.185 0.203,-0.466 0.203,-0.843 l 0,-6.855 0.952,0 z"
       style="fill:#18213e;fill-opacity:1;fill-rule:nonzero;stroke:none"
       id="path6901" /><path
       d="m 367.9875,688.7877 c -0.269,0.245 -0.616,0.368 -1.042,0.368 -0.428,0 -0.78,-0.119 -1.06,-0.356 -0.28,-0.239 -0.461,-0.599 -0.544,-1.082 l 3.105,0 c -0.038,0.467 -0.19,0.825 -0.459,1.07 m -0.912,-4.65 c -0.854,0 -1.546,0.243 -2.079,0.73 -0.532,0.487 -0.799,1.199 -0.799,2.136 0,0.936 0.271,1.679 0.816,2.226 0.543,0.547 1.178,0.822 1.903,0.822 1.722,0 2.584,-1.02 2.584,-3.06 l -4.203,0 0,-0.057 c 0,-0.536 0.188,-0.989 0.566,-1.359 0.377,-0.37 0.891,-0.555 1.541,-0.555 0.279,0 0.543,0.032 0.793,0.096 0.249,0.065 0.43,0.131 0.543,0.198 l 0.159,0.091 0.329,-0.589 c -0.023,-0.015 -0.055,-0.04 -0.097,-0.074 -0.041,-0.033 -0.129,-0.089 -0.266,-0.164 -0.136,-0.075 -0.283,-0.144 -0.441,-0.204 -0.401,-0.158 -0.85,-0.237 -1.349,-0.237"
       style="fill:#18213e;fill-opacity:1;fill-rule:nonzero;stroke:none"
       id="path6905" /><path
       d="m 374.676,688.2955 -0.713,0 -0.158,0.566 c -0.197,0.189 -0.499,0.284 -0.907,0.284 -0.408,0 -0.724,-0.054 -0.947,-0.16 -0.222,-0.105 -0.334,-0.247 -0.334,-0.424 0,-0.178 0.083,-0.344 0.25,-0.498 0.166,-0.156 0.336,-0.271 0.51,-0.346 0.174,-0.076 0.483,-0.19 0.929,-0.34 0.445,-0.151 0.809,-0.352 1.093,-0.601 0.283,-0.249 0.425,-0.578 0.425,-0.985 0,-0.544 -0.199,-0.958 -0.595,-1.241 -0.397,-0.283 -0.85,-0.425 -1.36,-0.425 -0.509,0 -0.947,0.065 -1.314,0.192 -0.366,0.129 -0.629,0.257 -0.787,0.386 l -0.227,0.193 0,1.211 0.68,0 0.238,-0.702 c 0.008,-0.022 0.069,-0.06 0.182,-0.113 0.354,-0.182 0.709,-0.271 1.064,-0.271 0.356,0 0.627,0.054 0.817,0.164 0.187,0.109 0.283,0.264 0.283,0.464 0,0.2 -0.107,0.391 -0.318,0.572 -0.211,0.181 -0.565,0.345 -1.059,0.493 -0.495,0.147 -0.91,0.362 -1.246,0.645 -0.336,0.284 -0.504,0.615 -0.504,0.993 0,0.566 0.197,0.991 0.594,1.274 0.396,0.283 0.908,0.425 1.535,0.425 0.31,0 0.619,-0.038 0.93,-0.113 0.309,-0.077 0.543,-0.152 0.702,-0.227 l 0.237,-0.113 0,-1.303 z"
       style="fill:#18213e;fill-opacity:1;fill-rule:nonzero;stroke:none"
       id="path6909" /><path
       d="m 385.3948,685.0211 0,-0.68 c -0.295,-0.143 -0.627,-0.216 -0.997,-0.216 -0.37,0 -0.628,0.079 -0.771,0.233 -0.143,0.154 -0.226,0.383 -0.25,0.685 -0.097,-0.113 -0.211,-0.226 -0.339,-0.339 -0.128,-0.114 -0.342,-0.239 -0.64,-0.374 -0.298,-0.136 -0.61,-0.205 -0.935,-0.205 -0.589,0 -1.031,0.165 -1.326,0.494 -0.294,0.328 -0.441,0.776 -0.441,1.342 l 0,3.195 -0.951,0 0,0.679 c 0.295,0.144 0.635,0.216 1.025,0.216 0.389,0 0.65,-0.093 0.787,-0.277 0.136,-0.186 0.203,-0.467 0.203,-0.845 l 0,-2.571 c 0,-0.446 0.074,-0.778 0.222,-0.997 0.147,-0.22 0.413,-0.329 0.799,-0.329 0.385,0 0.714,0.074 0.985,0.22 0.272,0.148 0.477,0.301 0.611,0.459 l 0,3.445 -0.951,0 0,0.679 c 0.295,0.144 0.637,0.216 1.026,0.216 0.388,0 0.651,-0.093 0.787,-0.277 0.136,-0.186 0.204,-0.467 0.204,-0.845 l 0,-3.908 0.952,0 z"
       style="fill:#18213e;fill-opacity:1;fill-rule:nonzero;stroke:none"
       id="path6913" /><path
       d="m 387.9065,685.4058 c 0.195,-0.234 0.494,-0.352 0.895,-0.352 0.4,0 0.728,0.061 0.986,0.182 l 0.226,-0.566 c -0.031,-0.038 -0.074,-0.087 -0.13,-0.148 -0.057,-0.06 -0.199,-0.141 -0.425,-0.243 -0.227,-0.102 -0.476,-0.153 -0.747,-0.153 -0.688,0 -1.221,0.194 -1.598,0.584 -0.379,0.388 -0.566,0.957 -0.566,1.705 l 0,2.605 -0.602,0 0,0.668 1.088,1.088 0.578,0 0,-0.86 1.903,0 0,-0.896 -1.903,0 0,-2.289 c 0,-0.649 0.098,-1.091 0.295,-1.325"
       style="fill:#18213e;fill-opacity:1;fill-rule:nonzero;stroke:none"
       id="path6917" /><path
       d="m 392.926,691.3541 c -0.174,-0.174 -0.385,-0.261 -0.635,-0.261 -0.249,0 -0.461,0.087 -0.635,0.261 -0.173,0.174 -0.259,0.385 -0.259,0.635 0,0.249 0.086,0.46 0.259,0.634 0.174,0.173 0.386,0.26 0.635,0.26 0.25,0 0.461,-0.087 0.635,-0.26 0.174,-0.174 0.26,-0.385 0.26,-0.634 0,-0.25 -0.086,-0.461 -0.26,-0.635 m 0.918,-7.104 -2.981,0 0,0.488 0.953,0.373 0,4.045 -0.953,0 0,0.679 c 0.295,0.144 0.637,0.216 1.026,0.216 0.389,0 0.652,-0.093 0.787,-0.277 0.137,-0.186 0.205,-0.467 0.205,-0.845 l 0,-3.818 0.963,-0.373 0,-0.488 z"
       style="fill:#18213e;fill-opacity:1;fill-rule:nonzero;stroke:none"
       id="path6921" /><path
       d="m 397.6917,684.2505 -2.98,0 0,0.487 0.952,0.373 0,6.992 -0.952,0 0,0.679 c 0.294,0.144 0.636,0.215 1.025,0.215 0.389,0 0.652,-0.093 0.787,-0.277 0.137,-0.186 0.205,-0.467 0.205,-0.844 l 0,-6.765 0.963,-0.373 0,-0.487 z"
       style="fill:#18213e;fill-opacity:1;fill-rule:nonzero;stroke:none"
       id="path6925" /><path
       d="m 400.7131,691.3541 c -0.174,-0.174 -0.386,-0.261 -0.635,-0.261 -0.25,0 -0.461,0.087 -0.635,0.261 -0.173,0.174 -0.26,0.385 -0.26,0.635 0,0.249 0.087,0.46 0.26,0.634 0.174,0.173 0.385,0.26 0.635,0.26 0.249,0 0.461,-0.087 0.635,-0.26 0.173,-0.174 0.26,-0.385 0.26,-0.634 0,-0.25 -0.087,-0.461 -0.26,-0.635 m 0.917,-7.104 -2.98,0 0,0.488 0.952,0.373 0,4.045 -0.952,0 0,0.679 c 0.295,0.144 0.637,0.216 1.026,0.216 0.389,0 0.651,-0.093 0.787,-0.277 0.137,-0.186 0.204,-0.467 0.204,-0.845 l 0,-3.818 0.963,-0.373 0,-0.488 z"
       style="fill:#18213e;fill-opacity:1;fill-rule:nonzero;stroke:none"
       id="path6929" /><path
       d="m 406.7542,688.2955 -0.714,0 -0.158,0.566 c -0.196,0.189 -0.499,0.284 -0.907,0.284 -0.408,0 -0.723,-0.054 -0.946,-0.16 -0.222,-0.105 -0.334,-0.247 -0.334,-0.424 0,-0.178 0.082,-0.344 0.249,-0.498 0.166,-0.156 0.336,-0.271 0.51,-0.346 0.174,-0.076 0.484,-0.19 0.929,-0.34 0.445,-0.151 0.81,-0.352 1.094,-0.601 0.283,-0.249 0.424,-0.578 0.424,-0.985 0,-0.544 -0.198,-0.958 -0.594,-1.241 -0.397,-0.283 -0.85,-0.425 -1.36,-0.425 -0.509,0 -0.948,0.065 -1.314,0.192 -0.367,0.129 -0.629,0.257 -0.787,0.386 l -0.227,0.193 0,1.211 0.68,0 0.238,-0.702 c 0.007,-0.022 0.068,-0.06 0.181,-0.113 0.354,-0.182 0.71,-0.271 1.065,-0.271 0.355,0 0.627,0.054 0.816,0.164 0.188,0.109 0.283,0.264 0.283,0.464 0,0.2 -0.107,0.391 -0.317,0.572 -0.211,0.181 -0.565,0.345 -1.06,0.493 -0.495,0.147 -0.91,0.362 -1.246,0.645 -0.336,0.284 -0.504,0.615 -0.504,0.993 0,0.566 0.198,0.991 0.595,1.274 0.396,0.283 0.908,0.425 1.535,0.425 0.309,0 0.619,-0.038 0.929,-0.113 0.309,-0.077 0.544,-0.152 0.702,-0.227 l 0.238,-0.113 0,-1.303 z"
       style="fill:#18213e;fill-opacity:1;fill-rule:nonzero;stroke:none"
       id="path6933" /><path
       d="m 409.3069,686.3121 c -0.17,-0.136 -0.255,-0.319 -0.255,-0.549 0,-0.23 0.093,-0.412 0.278,-0.544 0.185,-0.133 0.444,-0.198 0.776,-0.198 0.627,0 1.14,0.17 1.541,0.51 l 0,1.223 -1.654,-0.181 c -0.288,-0.038 -0.516,-0.125 -0.686,-0.261 m 4.356,-1.291 0,-0.68 c -0.294,-0.143 -0.619,-0.216 -0.973,-0.216 -0.356,0 -0.612,0.069 -0.766,0.205 -0.154,0.135 -0.243,0.332 -0.265,0.588 -0.416,-0.528 -0.962,-0.793 -1.638,-0.793 -0.676,0 -1.188,0.136 -1.535,0.409 -0.347,0.271 -0.521,0.653 -0.521,1.144 0,0.944 0.656,1.488 1.971,1.631 l 1.711,0.182 0,0.328 c 0,0.438 -0.091,0.77 -0.272,0.997 -0.181,0.226 -0.468,0.34 -0.861,0.34 -0.725,0 -1.314,-0.079 -1.768,-0.238 l -0.226,-0.08 -0.204,0.726 c 0.212,0.121 0.532,0.232 0.963,0.334 0.43,0.102 0.831,0.153 1.201,0.153 0.807,0 1.382,-0.161 1.722,-0.481 0.339,-0.321 0.509,-0.773 0.509,-1.355 l 0,-3.194 0.952,0 z"
       style="fill:#18213e;fill-opacity:1;fill-rule:nonzero;stroke:none"
       id="path6937" /><path
       d="m 416.0999,685.4058 c 0.197,-0.234 0.495,-0.352 0.896,-0.352 0.4,0 0.729,0.061 0.985,0.182 l 0.226,-0.566 c -0.029,-0.038 -0.073,-0.087 -0.129,-0.148 -0.057,-0.06 -0.199,-0.141 -0.425,-0.243 -0.227,-0.102 -0.476,-0.153 -0.748,-0.153 -0.688,0 -1.22,0.194 -1.598,0.584 -0.377,0.388 -0.566,0.957 -0.566,1.705 l 0,2.605 -0.6,0 0,0.668 1.088,1.088 0.577,0 0,-0.86 1.903,0 0,-0.896 -1.903,0 0,-2.289 c 0,-0.649 0.099,-1.091 0.294,-1.325"
       style="fill:#18213e;fill-opacity:1;fill-rule:nonzero;stroke:none"
       id="path6941" /><path
       d="m 422.5862,688.7877 c -0.268,0.245 -0.615,0.368 -1.043,0.368 -0.426,0 -0.779,-0.119 -1.059,-0.356 -0.279,-0.239 -0.461,-0.599 -0.544,-1.082 l 3.105,0 c -0.038,0.467 -0.191,0.825 -0.459,1.07 m -0.912,-4.65 c -0.854,0 -1.547,0.243 -2.079,0.73 -0.532,0.487 -0.798,1.199 -0.798,2.136 0,0.936 0.271,1.679 0.814,2.226 0.545,0.547 1.179,0.822 1.905,0.822 1.721,0 2.583,-1.02 2.583,-3.06 l -4.204,0 0,-0.057 c 0,-0.536 0.189,-0.989 0.566,-1.359 0.379,-0.37 0.892,-0.555 1.541,-0.555 0.279,0 0.545,0.032 0.793,0.096 0.25,0.065 0.432,0.131 0.545,0.198 l 0.158,0.091 0.328,-0.589 c -0.022,-0.015 -0.054,-0.04 -0.095,-0.074 -0.042,-0.033 -0.131,-0.089 -0.267,-0.164 -0.136,-0.075 -0.283,-0.144 -0.442,-0.204 -0.401,-0.158 -0.85,-0.237 -1.348,-0.237"
       style="fill:#18213e;fill-opacity:1;fill-rule:nonzero;stroke:none"
       id="path6945" /><path
       d="m 431.428,685.0211 0,-0.68 c -0.295,-0.143 -0.627,-0.216 -0.997,-0.216 -0.37,0 -0.628,0.079 -0.771,0.233 -0.143,0.154 -0.226,0.383 -0.25,0.685 -0.097,-0.113 -0.211,-0.226 -0.339,-0.339 -0.128,-0.114 -0.342,-0.239 -0.64,-0.374 -0.298,-0.136 -0.61,-0.205 -0.935,-0.205 -0.589,0 -1.031,0.165 -1.326,0.494 -0.294,0.328 -0.441,0.776 -0.441,1.342 l 0,3.195 -0.951,0 0,0.679 c 0.295,0.144 0.635,0.216 1.025,0.216 0.389,0 0.65,-0.093 0.787,-0.277 0.136,-0.186 0.203,-0.467 0.203,-0.845 l 0,-2.571 c 0,-0.446 0.074,-0.778 0.222,-0.997 0.147,-0.22 0.413,-0.329 0.799,-0.329 0.385,0 0.714,0.074 0.985,0.22 0.272,0.148 0.477,0.301 0.611,0.459 l 0,3.445 -0.951,0 0,0.679 c 0.295,0.144 0.637,0.216 1.026,0.216 0.388,0 0.651,-0.093 0.787,-0.277 0.136,-0.186 0.204,-0.467 0.204,-0.845 l 0,-3.908 0.952,0 z"
       style="fill:#18213e;fill-opacity:1;fill-rule:nonzero;stroke:none"
       id="path6949" /><path
       d="m 435.3557,684.2505 -2.98,0 0,0.487 0.952,0.373 0,4.045 -0.952,0 0,0.68 c 0.294,0.144 0.626,0.216 0.998,0.216 0.369,0 0.627,-0.079 0.769,-0.239 0.145,-0.158 0.223,-0.392 0.238,-0.702 0.077,0.227 0.231,0.431 0.465,0.612 0.28,0.219 0.65,0.329 1.111,0.329 0.204,0 0.397,-0.027 0.583,-0.079 0.185,-0.054 0.319,-0.107 0.402,-0.16 l 0.137,-0.079 0,-1.337 -0.681,0 -0.147,0.68 c -0.045,0.045 -0.17,0.069 -0.374,0.069 -0.205,0 -0.4,-0.029 -0.589,-0.085 -0.189,-0.057 -0.336,-0.127 -0.442,-0.21 -0.212,-0.182 -0.363,-0.367 -0.453,-0.555 l 0,-3.185 0.963,-0.373 0,-0.487 z"
       style="fill:#18213e;fill-opacity:1;fill-rule:nonzero;stroke:none"
       id="path6953" /><path
       d="m 442.1057,688.2955 -0.714,0 -0.158,0.566 c -0.196,0.189 -0.499,0.284 -0.907,0.284 -0.408,0 -0.723,-0.054 -0.946,-0.16 -0.222,-0.105 -0.334,-0.247 -0.334,-0.424 0,-0.178 0.082,-0.344 0.249,-0.498 0.166,-0.156 0.336,-0.271 0.51,-0.346 0.174,-0.076 0.484,-0.19 0.929,-0.34 0.445,-0.151 0.81,-0.352 1.094,-0.601 0.283,-0.249 0.424,-0.578 0.424,-0.985 0,-0.544 -0.198,-0.958 -0.594,-1.241 -0.397,-0.283 -0.85,-0.425 -1.36,-0.425 -0.509,0 -0.948,0.065 -1.314,0.192 -0.367,0.129 -0.629,0.257 -0.787,0.386 l -0.227,0.193 0,1.211 0.68,0 0.238,-0.702 c 0.007,-0.022 0.068,-0.06 0.181,-0.113 0.354,-0.182 0.71,-0.271 1.065,-0.271 0.355,0 0.627,0.054 0.816,0.164 0.188,0.109 0.283,0.264 0.283,0.464 0,0.2 -0.107,0.391 -0.317,0.572 -0.211,0.181 -0.565,0.345 -1.06,0.493 -0.495,0.147 -0.91,0.362 -1.246,0.645 -0.336,0.284 -0.504,0.615 -0.504,0.993 0,0.566 0.198,0.991 0.595,1.274 0.396,0.283 0.908,0.425 1.535,0.425 0.309,0 0.619,-0.038 0.929,-0.113 0.309,-0.077 0.544,-0.152 0.702,-0.227 l 0.238,-0.113 0,-1.303 z"
       style="fill:#18213e;fill-opacity:1;fill-rule:nonzero;stroke:none"
       id="path6957" /><path
       d="m 449.8098,689.1558 c -0.672,0 -1.214,-0.183 -1.626,-0.549 -0.411,-0.367 -0.617,-0.883 -0.617,-1.547 0,-0.665 0.164,-1.18 0.493,-1.547 0.328,-0.366 0.685,-0.548 1.07,-0.548 0.65,0 1.137,0.237 1.462,0.713 l 0,3.308 c -0.34,0.113 -0.6,0.17 -0.782,0.17 m 2.799,-4.135 0,-0.679 c -0.295,-0.144 -0.618,-0.216 -0.969,-0.216 -0.351,0 -0.604,0.064 -0.759,0.192 -0.155,0.129 -0.248,0.317 -0.277,0.567 -0.348,-0.499 -0.893,-0.748 -1.633,-0.748 -0.596,0 -1.147,0.205 -1.653,0.612 -0.257,0.212 -0.463,0.511 -0.618,0.901 -0.155,0.389 -0.232,0.84 -0.232,1.354 0,0.513 0.102,0.972 0.306,1.377 0.204,0.403 0.473,0.722 0.805,0.957 0.671,0.475 1.416,0.714 2.231,0.714 0.241,0 0.503,-0.053 0.782,-0.16 l 0,2.21 -0.952,0 0,0.68 c 0.295,0.144 0.636,0.215 1.025,0.215 0.39,0 0.652,-0.093 0.789,-0.278 0.134,-0.185 0.203,-0.466 0.203,-0.843 l 0,-6.855 0.952,0 z"
       style="fill:#18213e;fill-opacity:1;fill-rule:nonzero;stroke:none"
       id="path6961" /><path
       d="m 457.1243,688.7877 c -0.269,0.245 -0.616,0.368 -1.042,0.368 -0.428,0 -0.78,-0.119 -1.06,-0.356 -0.28,-0.239 -0.461,-0.599 -0.544,-1.082 l 3.105,0 c -0.038,0.467 -0.19,0.825 -0.459,1.07 m -0.912,-4.65 c -0.854,0 -1.546,0.243 -2.079,0.73 -0.532,0.487 -0.799,1.199 -0.799,2.136 0,0.936 0.271,1.679 0.816,2.226 0.543,0.547 1.178,0.822 1.903,0.822 1.722,0 2.584,-1.02 2.584,-3.06 l -4.203,0 0,-0.057 c 0,-0.536 0.188,-0.989 0.566,-1.359 0.377,-0.37 0.891,-0.555 1.541,-0.555 0.279,0 0.543,0.032 0.793,0.096 0.249,0.065 0.43,0.131 0.543,0.198 l 0.159,0.091 0.329,-0.589 c -0.023,-0.015 -0.055,-0.04 -0.097,-0.074 -0.041,-0.033 -0.129,-0.089 -0.266,-0.164 -0.136,-0.075 -0.283,-0.144 -0.441,-0.204 -0.401,-0.158 -0.85,-0.237 -1.349,-0.237"
       style="fill:#18213e;fill-opacity:1;fill-rule:nonzero;stroke:none"
       id="path6965" /><path
       d="m 464.97,687.8531 0.815,0 c 0.59,0 1.082,0.147 1.479,0.442 0.396,0.294 0.595,0.744 0.595,1.348 0,1.171 -0.691,1.756 -2.074,1.756 l -0.815,0 0,-3.546 z m 1.02,-3.603 -3.207,0 0,0.499 1.032,0.374 0,6.253 -1.032,0.374 0,0.499 3.536,0 c 0.694,0 1.309,-0.229 1.845,-0.685 0.537,-0.457 0.805,-1.1 0.805,-1.927 0,-0.827 -0.253,-1.469 -0.759,-1.926 -0.507,-0.457 -1.137,-0.685 -1.891,-0.685 l -1.361,0 0,-1.903 1.032,-0.374 0,-0.499 z"
       style="fill:#18213e;fill-opacity:1;fill-rule:nonzero;stroke:none"
       id="path6969" /><path
       d="m 477.9846,684.2505 -3.205,0 0,0.498 1.03,0.374 0,2.821 -3.897,0 0,-2.821 1.031,-0.374 0,-0.498 -3.207,0 0,0.498 1.031,0.374 0,6.254 -1.031,0.374 0,0.498 3.207,0 0,-0.498 -1.031,-0.374 0,-2.561 3.897,0 0,2.561 -1.03,0.374 0,0.498 3.205,0 0,-0.498 -1.03,-0.374 0,-6.254 1.03,-0.374 0,-0.498 z"
       style="fill:#18213e;fill-opacity:1;fill-rule:nonzero;stroke:none"
       id="path6973" /><path
       d="m 481.3948,687.8531 0.816,0 c 0.589,0 1.082,0.147 1.479,0.442 0.396,0.294 0.594,0.744 0.594,1.348 0,1.171 -0.691,1.756 -2.073,1.756 l -0.816,0 0,-3.546 z m 1.02,-3.603 -3.207,0 0,0.499 1.032,0.374 0,6.253 -1.032,0.374 0,0.499 3.536,0 c 0.694,0 1.309,-0.229 1.846,-0.685 0.536,-0.457 0.805,-1.1 0.805,-1.927 0,-0.827 -0.254,-1.469 -0.76,-1.926 -0.506,-0.457 -1.136,-0.685 -1.891,-0.685 l -1.361,0 0,-1.903 1.032,-0.374 0,-0.499 z"
       style="fill:#18213e;fill-opacity:1;fill-rule:nonzero;stroke:none"
       id="path6977" /><path
       d="m 255.5834,690.8483 0,0 -10.702,-6.178 c 0.496,-0.858 1.212,-1.587 2.1,-2.1 l 8.602,-4.966 0,13.244 z"
       style="fill:#4c9edc;fill-opacity:1;fill-rule:nonzero;stroke:none"
       id="path6981" /><path
       d="m 244.1135,697.4705 0,-9.933 c 0,-1.025 0.273,-2.01 0.768,-2.868 l 10.702,6.179 -11.47,6.622 z"
       style="fill:#498cd2;fill-opacity:1;fill-rule:nonzero;stroke:none"
       id="path6985" /><path
       d="m 255.5834,690.8483 0,13.244 -11.47,-6.622 11.47,-6.622 z"
       style="fill:#487dc8;fill-opacity:1;fill-rule:nonzero;stroke:none"
       id="path6989" /><path
       d="m 255.5834,677.6041 0,0 8.602,-4.967 c 0.888,-0.512 1.878,-0.768 2.868,-0.768 l 0,12.357 -11.47,-6.622 z"
       style="fill:#5295d6;fill-opacity:1;fill-rule:nonzero;stroke:none"
       id="path6993" /><path
       d="m 244.8819,710.2711 c -0.495,-0.857 -0.768,-1.843 -0.768,-2.867 l 0,-9.934 11.47,6.622 -10.702,6.179 z"
       style="fill:#476bbc;fill-opacity:1;fill-rule:nonzero;stroke:none"
       id="path6997" /><path
       d="m 278.523,677.6041 0,13.244 -11.47,-6.622 11.47,-6.622 z"
       style="fill:#7f9ad6;fill-opacity:1;fill-rule:nonzero;stroke:none"
       id="path7001" /><path
       d="m 289.2245,684.6699 c 0.495,0.857 0.768,1.843 0.768,2.867 l 0,9.934 -11.469,-6.623 10.701,-6.178 z"
       style="fill:#727ebd;fill-opacity:1;fill-rule:nonzero;stroke:none"
       id="path7005" /><path
       d="m 278.523,690.8483 0,-13.244 8.602,4.966 c 0.888,0.513 1.604,1.242 2.099,2.1 l -10.701,6.178 z"
       style="fill:#8f9fd8;fill-opacity:1;fill-rule:nonzero;stroke:none"
       id="path7009" /><path
       d="m 278.523,704.0926 0,0 0,-13.244 11.47,6.622 -11.47,6.622 z"
       style="fill:#425da2;fill-opacity:1;fill-rule:nonzero;stroke:none"
       id="path7013" /><path
       d="m 267.0532,684.2263 0,-12.357 c 0.99,0 1.98,0.256 2.867,0.768 l 8.603,4.967 -11.47,6.622 z"
       style="fill:#6495d5;fill-opacity:1;fill-rule:nonzero;stroke:none"
       id="path7017" /><path
       d="m 267.0532,710.7147 -11.47,6.622 0,-13.244 11.47,6.622 z"
       style="fill:#3a64ad;fill-opacity:1;fill-rule:nonzero;stroke:none"
       id="path7021" /><path
       d="m 267.0532,710.7147 11.47,-6.622 0,13.244 -11.47,-6.622 z"
       style="fill:#3a61a3;fill-opacity:1;fill-rule:nonzero;stroke:none"
       id="path7025" /><path
       d="m 244.8819,710.2711 10.702,-6.179 0,13.245 -8.603,-4.967 c -0.887,-0.512 -1.604,-1.242 -2.099,-2.099"
       style="fill:#32549d;fill-opacity:1;fill-rule:nonzero;stroke:none"
       id="path7029" /><path
       d="m 278.523,704.0926 11.47,-6.622 0,9.933 c 0,1.024 -0.273,2.01 -0.769,2.867 l -10.701,-6.178 z"
       style="fill:#2f5296;fill-opacity:1;fill-rule:nonzero;stroke:none"
       id="path7033" /><path
       d="m 278.523,704.0926 10.701,6.178 c -0.495,0.858 -1.211,1.587 -2.099,2.1 l -8.602,4.966 0,-13.244 z"
       style="fill:#325295;fill-opacity:1;fill-rule:nonzero;stroke:none"
       id="path7037" /><path
       d="m 255.5834,690.8483 11.47,-6.622 0,9.933 c 0,1.025 -0.273,2.01 -0.769,2.868 l -10.701,-6.179 z"
       style="fill:#6aaee3;fill-opacity:1;fill-rule:nonzero;stroke:none"
       id="path7041" /><path
       d="m 255.5834,690.8483 10.701,6.179 c -0.495,0.857 -1.211,1.586 -2.099,2.099 l -8.602,4.966 0,-13.244 z"
       style="fill:#50a0dd;fill-opacity:1;fill-rule:nonzero;stroke:none"
       id="path7045" /><path
       d="m 278.523,717.3368 -8.603,4.967 c -0.887,0.512 -1.877,0.768 -2.867,0.768 l 0,-12.357 11.47,6.622 z"
       style="fill:#4379c6;fill-opacity:1;fill-rule:nonzero;stroke:none"
       id="path7049" /><path
       d="m 267.0532,710.7147 0,12.357 c -0.99,0 -1.98,-0.256 -2.867,-0.768 l -8.603,-4.967 11.47,-6.622 z"
       style="fill:#3f73bd;fill-opacity:1;fill-rule:nonzero;stroke:none"
       id="path7053" /><path
       d="m 255.5834,677.6041 11.47,6.622 -11.47,6.622 0,-13.244 z"
       style="fill:#50a0dd;fill-opacity:1;fill-rule:nonzero;stroke:none"
       id="path7057" /></g></svg>