<?xml version="1.0" encoding="UTF-8"?>
<svg version="1.1" baseProfile="tiny" xmlns="http://www.w3.org/2000/svg" width="400" height="400">
<rect shape-rendering="optimizeSpeed"  x="0" y="0" width="400" height="400" fill="white" />
<rect shape-rendering="optimizeSpeed"  x="0" y="0" width="16" height="16" fill="black" />
<rect shape-rendering="optimizeSpeed"  x="16" y="0" width="16" height="16" fill="black" />
<rect shape-rendering="optimizeSpeed"  x="32" y="0" width="16" height="16" fill="black" />
<rect shape-rendering="optimizeSpeed"  x="48" y="0" width="16" height="16" fill="black" />
<rect shape-rendering="optimizeSpeed"  x="64" y="0" width="16" height="16" fill="black" />
<rect shape-rendering="optimizeSpeed"  x="80" y="0" width="16" height="16" fill="black" />
<rect shape-rendering="optimizeSpeed"  x="96" y="0" width="16" height="16" fill="black" />
<rect shape-rendering="optimizeSpeed"  x="128" y="0" width="16" height="16" fill="black" />
<rect shape-rendering="optimizeSpeed"  x="256" y="0" width="16" height="16" fill="black" />
<rect shape-rendering="optimizeSpeed"  x="288" y="0" width="16" height="16" fill="black" />
<rect shape-rendering="optimizeSpeed"  x="304" y="0" width="16" height="16" fill="black" />
<rect shape-rendering="optimizeSpeed"  x="320" y="0" width="16" height="16" fill="black" />
<rect shape-rendering="optimizeSpeed"  x="336" y="0" width="16" height="16" fill="black" />
<rect shape-rendering="optimizeSpeed"  x="352" y="0" width="16" height="16" fill="black" />
<rect shape-rendering="optimizeSpeed"  x="368" y="0" width="16" height="16" fill="black" />
<rect shape-rendering="optimizeSpeed"  x="384" y="0" width="16" height="16" fill="black" />
<rect shape-rendering="optimizeSpeed"  x="0" y="16" width="16" height="16" fill="black" />
<rect shape-rendering="optimizeSpeed"  x="96" y="16" width="16" height="16" fill="black" />
<rect shape-rendering="optimizeSpeed"  x="128" y="16" width="16" height="16" fill="black" />
<rect shape-rendering="optimizeSpeed"  x="176" y="16" width="16" height="16" fill="black" />
<rect shape-rendering="optimizeSpeed"  x="192" y="16" width="16" height="16" fill="black" />
<rect shape-rendering="optimizeSpeed"  x="208" y="16" width="16" height="16" fill="black" />
<rect shape-rendering="optimizeSpeed"  x="224" y="16" width="16" height="16" fill="black" />
<rect shape-rendering="optimizeSpeed"  x="256" y="16" width="16" height="16" fill="black" />
<rect shape-rendering="optimizeSpeed"  x="288" y="16" width="16" height="16" fill="black" />
<rect shape-rendering="optimizeSpeed"  x="384" y="16" width="16" height="16" fill="black" />
<rect shape-rendering="optimizeSpeed"  x="0" y="32" width="16" height="16" fill="black" />
<rect shape-rendering="optimizeSpeed"  x="32" y="32" width="16" height="16" fill="black" />
<rect shape-rendering="optimizeSpeed"  x="48" y="32" width="16" height="16" fill="black" />
<rect shape-rendering="optimizeSpeed"  x="64" y="32" width="16" height="16" fill="black" />
<rect shape-rendering="optimizeSpeed"  x="96" y="32" width="16" height="16" fill="black" />
<rect shape-rendering="optimizeSpeed"  x="128" y="32" width="16" height="16" fill="black" />
<rect shape-rendering="optimizeSpeed"  x="144" y="32" width="16" height="16" fill="black" />
<rect shape-rendering="optimizeSpeed"  x="192" y="32" width="16" height="16" fill="black" />
<rect shape-rendering="optimizeSpeed"  x="240" y="32" width="16" height="16" fill="black" />
<rect shape-rendering="optimizeSpeed"  x="256" y="32" width="16" height="16" fill="black" />
<rect shape-rendering="optimizeSpeed"  x="288" y="32" width="16" height="16" fill="black" />
<rect shape-rendering="optimizeSpeed"  x="320" y="32" width="16" height="16" fill="black" />
<rect shape-rendering="optimizeSpeed"  x="336" y="32" width="16" height="16" fill="black" />
<rect shape-rendering="optimizeSpeed"  x="352" y="32" width="16" height="16" fill="black" />
<rect shape-rendering="optimizeSpeed"  x="384" y="32" width="16" height="16" fill="black" />
<rect shape-rendering="optimizeSpeed"  x="0" y="48" width="16" height="16" fill="black" />
<rect shape-rendering="optimizeSpeed"  x="32" y="48" width="16" height="16" fill="black" />
<rect shape-rendering="optimizeSpeed"  x="48" y="48" width="16" height="16" fill="black" />
<rect shape-rendering="optimizeSpeed"  x="64" y="48" width="16" height="16" fill="black" />
<rect shape-rendering="optimizeSpeed"  x="96" y="48" width="16" height="16" fill="black" />
<rect shape-rendering="optimizeSpeed"  x="128" y="48" width="16" height="16" fill="black" />
<rect shape-rendering="optimizeSpeed"  x="144" y="48" width="16" height="16" fill="black" />
<rect shape-rendering="optimizeSpeed"  x="160" y="48" width="16" height="16" fill="black" />
<rect shape-rendering="optimizeSpeed"  x="192" y="48" width="16" height="16" fill="black" />
<rect shape-rendering="optimizeSpeed"  x="208" y="48" width="16" height="16" fill="black" />
<rect shape-rendering="optimizeSpeed"  x="224" y="48" width="16" height="16" fill="black" />
<rect shape-rendering="optimizeSpeed"  x="256" y="48" width="16" height="16" fill="black" />
<rect shape-rendering="optimizeSpeed"  x="288" y="48" width="16" height="16" fill="black" />
<rect shape-rendering="optimizeSpeed"  x="320" y="48" width="16" height="16" fill="black" />
<rect shape-rendering="optimizeSpeed"  x="336" y="48" width="16" height="16" fill="black" />
<rect shape-rendering="optimizeSpeed"  x="352" y="48" width="16" height="16" fill="black" />
<rect shape-rendering="optimizeSpeed"  x="384" y="48" width="16" height="16" fill="black" />
<rect shape-rendering="optimizeSpeed"  x="0" y="64" width="16" height="16" fill="black" />
<rect shape-rendering="optimizeSpeed"  x="32" y="64" width="16" height="16" fill="black" />
<rect shape-rendering="optimizeSpeed"  x="48" y="64" width="16" height="16" fill="black" />
<rect shape-rendering="optimizeSpeed"  x="64" y="64" width="16" height="16" fill="black" />
<rect shape-rendering="optimizeSpeed"  x="96" y="64" width="16" height="16" fill="black" />
<rect shape-rendering="optimizeSpeed"  x="144" y="64" width="16" height="16" fill="black" />
<rect shape-rendering="optimizeSpeed"  x="160" y="64" width="16" height="16" fill="black" />
<rect shape-rendering="optimizeSpeed"  x="192" y="64" width="16" height="16" fill="black" />
<rect shape-rendering="optimizeSpeed"  x="224" y="64" width="16" height="16" fill="black" />
<rect shape-rendering="optimizeSpeed"  x="256" y="64" width="16" height="16" fill="black" />
<rect shape-rendering="optimizeSpeed"  x="288" y="64" width="16" height="16" fill="black" />
<rect shape-rendering="optimizeSpeed"  x="320" y="64" width="16" height="16" fill="black" />
<rect shape-rendering="optimizeSpeed"  x="336" y="64" width="16" height="16" fill="black" />
<rect shape-rendering="optimizeSpeed"  x="352" y="64" width="16" height="16" fill="black" />
<rect shape-rendering="optimizeSpeed"  x="384" y="64" width="16" height="16" fill="black" />
<rect shape-rendering="optimizeSpeed"  x="0" y="80" width="16" height="16" fill="black" />
<rect shape-rendering="optimizeSpeed"  x="96" y="80" width="16" height="16" fill="black" />
<rect shape-rendering="optimizeSpeed"  x="128" y="80" width="16" height="16" fill="black" />
<rect shape-rendering="optimizeSpeed"  x="144" y="80" width="16" height="16" fill="black" />
<rect shape-rendering="optimizeSpeed"  x="160" y="80" width="16" height="16" fill="black" />
<rect shape-rendering="optimizeSpeed"  x="208" y="80" width="16" height="16" fill="black" />
<rect shape-rendering="optimizeSpeed"  x="224" y="80" width="16" height="16" fill="black" />
<rect shape-rendering="optimizeSpeed"  x="288" y="80" width="16" height="16" fill="black" />
<rect shape-rendering="optimizeSpeed"  x="384" y="80" width="16" height="16" fill="black" />
<rect shape-rendering="optimizeSpeed"  x="0" y="96" width="16" height="16" fill="black" />
<rect shape-rendering="optimizeSpeed"  x="16" y="96" width="16" height="16" fill="black" />
<rect shape-rendering="optimizeSpeed"  x="32" y="96" width="16" height="16" fill="black" />
<rect shape-rendering="optimizeSpeed"  x="48" y="96" width="16" height="16" fill="black" />
<rect shape-rendering="optimizeSpeed"  x="64" y="96" width="16" height="16" fill="black" />
<rect shape-rendering="optimizeSpeed"  x="80" y="96" width="16" height="16" fill="black" />
<rect shape-rendering="optimizeSpeed"  x="96" y="96" width="16" height="16" fill="black" />
<rect shape-rendering="optimizeSpeed"  x="128" y="96" width="16" height="16" fill="black" />
<rect shape-rendering="optimizeSpeed"  x="160" y="96" width="16" height="16" fill="black" />
<rect shape-rendering="optimizeSpeed"  x="192" y="96" width="16" height="16" fill="black" />
<rect shape-rendering="optimizeSpeed"  x="224" y="96" width="16" height="16" fill="black" />
<rect shape-rendering="optimizeSpeed"  x="256" y="96" width="16" height="16" fill="black" />
<rect shape-rendering="optimizeSpeed"  x="288" y="96" width="16" height="16" fill="black" />
<rect shape-rendering="optimizeSpeed"  x="304" y="96" width="16" height="16" fill="black" />
<rect shape-rendering="optimizeSpeed"  x="320" y="96" width="16" height="16" fill="black" />
<rect shape-rendering="optimizeSpeed"  x="336" y="96" width="16" height="16" fill="black" />
<rect shape-rendering="optimizeSpeed"  x="352" y="96" width="16" height="16" fill="black" />
<rect shape-rendering="optimizeSpeed"  x="368" y="96" width="16" height="16" fill="black" />
<rect shape-rendering="optimizeSpeed"  x="384" y="96" width="16" height="16" fill="black" />
<rect shape-rendering="optimizeSpeed"  x="160" y="112" width="16" height="16" fill="black" />
<rect shape-rendering="optimizeSpeed"  x="176" y="112" width="16" height="16" fill="black" />
<rect shape-rendering="optimizeSpeed"  x="224" y="112" width="16" height="16" fill="black" />
<rect shape-rendering="optimizeSpeed"  x="240" y="112" width="16" height="16" fill="black" />
<rect shape-rendering="optimizeSpeed"  x="256" y="112" width="16" height="16" fill="black" />
<rect shape-rendering="optimizeSpeed"  x="0" y="128" width="16" height="16" fill="black" />
<rect shape-rendering="optimizeSpeed"  x="16" y="128" width="16" height="16" fill="black" />
<rect shape-rendering="optimizeSpeed"  x="64" y="128" width="16" height="16" fill="black" />
<rect shape-rendering="optimizeSpeed"  x="80" y="128" width="16" height="16" fill="black" />
<rect shape-rendering="optimizeSpeed"  x="96" y="128" width="16" height="16" fill="black" />
<rect shape-rendering="optimizeSpeed"  x="160" y="128" width="16" height="16" fill="black" />
<rect shape-rendering="optimizeSpeed"  x="192" y="128" width="16" height="16" fill="black" />
<rect shape-rendering="optimizeSpeed"  x="240" y="128" width="16" height="16" fill="black" />
<rect shape-rendering="optimizeSpeed"  x="256" y="128" width="16" height="16" fill="black" />
<rect shape-rendering="optimizeSpeed"  x="304" y="128" width="16" height="16" fill="black" />
<rect shape-rendering="optimizeSpeed"  x="336" y="128" width="16" height="16" fill="black" />
<rect shape-rendering="optimizeSpeed"  x="352" y="128" width="16" height="16" fill="black" />
<rect shape-rendering="optimizeSpeed"  x="368" y="128" width="16" height="16" fill="black" />
<rect shape-rendering="optimizeSpeed"  x="384" y="128" width="16" height="16" fill="black" />
<rect shape-rendering="optimizeSpeed"  x="64" y="144" width="16" height="16" fill="black" />
<rect shape-rendering="optimizeSpeed"  x="80" y="144" width="16" height="16" fill="black" />
<rect shape-rendering="optimizeSpeed"  x="208" y="144" width="16" height="16" fill="black" />
<rect shape-rendering="optimizeSpeed"  x="240" y="144" width="16" height="16" fill="black" />
<rect shape-rendering="optimizeSpeed"  x="320" y="144" width="16" height="16" fill="black" />
<rect shape-rendering="optimizeSpeed"  x="336" y="144" width="16" height="16" fill="black" />
<rect shape-rendering="optimizeSpeed"  x="368" y="144" width="16" height="16" fill="black" />
<rect shape-rendering="optimizeSpeed"  x="0" y="160" width="16" height="16" fill="black" />
<rect shape-rendering="optimizeSpeed"  x="32" y="160" width="16" height="16" fill="black" />
<rect shape-rendering="optimizeSpeed"  x="48" y="160" width="16" height="16" fill="black" />
<rect shape-rendering="optimizeSpeed"  x="96" y="160" width="16" height="16" fill="black" />
<rect shape-rendering="optimizeSpeed"  x="144" y="160" width="16" height="16" fill="black" />
<rect shape-rendering="optimizeSpeed"  x="160" y="160" width="16" height="16" fill="black" />
<rect shape-rendering="optimizeSpeed"  x="224" y="160" width="16" height="16" fill="black" />
<rect shape-rendering="optimizeSpeed"  x="240" y="160" width="16" height="16" fill="black" />
<rect shape-rendering="optimizeSpeed"  x="288" y="160" width="16" height="16" fill="black" />
<rect shape-rendering="optimizeSpeed"  x="304" y="160" width="16" height="16" fill="black" />
<rect shape-rendering="optimizeSpeed"  x="320" y="160" width="16" height="16" fill="black" />
<rect shape-rendering="optimizeSpeed"  x="336" y="160" width="16" height="16" fill="black" />
<rect shape-rendering="optimizeSpeed"  x="352" y="160" width="16" height="16" fill="black" />
<rect shape-rendering="optimizeSpeed"  x="32" y="176" width="16" height="16" fill="black" />
<rect shape-rendering="optimizeSpeed"  x="80" y="176" width="16" height="16" fill="black" />
<rect shape-rendering="optimizeSpeed"  x="128" y="176" width="16" height="16" fill="black" />
<rect shape-rendering="optimizeSpeed"  x="144" y="176" width="16" height="16" fill="black" />
<rect shape-rendering="optimizeSpeed"  x="192" y="176" width="16" height="16" fill="black" />
<rect shape-rendering="optimizeSpeed"  x="240" y="176" width="16" height="16" fill="black" />
<rect shape-rendering="optimizeSpeed"  x="256" y="176" width="16" height="16" fill="black" />
<rect shape-rendering="optimizeSpeed"  x="288" y="176" width="16" height="16" fill="black" />
<rect shape-rendering="optimizeSpeed"  x="304" y="176" width="16" height="16" fill="black" />
<rect shape-rendering="optimizeSpeed"  x="320" y="176" width="16" height="16" fill="black" />
<rect shape-rendering="optimizeSpeed"  x="352" y="176" width="16" height="16" fill="black" />
<rect shape-rendering="optimizeSpeed"  x="368" y="176" width="16" height="16" fill="black" />
<rect shape-rendering="optimizeSpeed"  x="0" y="192" width="16" height="16" fill="black" />
<rect shape-rendering="optimizeSpeed"  x="16" y="192" width="16" height="16" fill="black" />
<rect shape-rendering="optimizeSpeed"  x="32" y="192" width="16" height="16" fill="black" />
<rect shape-rendering="optimizeSpeed"  x="80" y="192" width="16" height="16" fill="black" />
<rect shape-rendering="optimizeSpeed"  x="96" y="192" width="16" height="16" fill="black" />
<rect shape-rendering="optimizeSpeed"  x="112" y="192" width="16" height="16" fill="black" />
<rect shape-rendering="optimizeSpeed"  x="176" y="192" width="16" height="16" fill="black" />
<rect shape-rendering="optimizeSpeed"  x="208" y="192" width="16" height="16" fill="black" />
<rect shape-rendering="optimizeSpeed"  x="224" y="192" width="16" height="16" fill="black" />
<rect shape-rendering="optimizeSpeed"  x="240" y="192" width="16" height="16" fill="black" />
<rect shape-rendering="optimizeSpeed"  x="256" y="192" width="16" height="16" fill="black" />
<rect shape-rendering="optimizeSpeed"  x="288" y="192" width="16" height="16" fill="black" />
<rect shape-rendering="optimizeSpeed"  x="304" y="192" width="16" height="16" fill="black" />
<rect shape-rendering="optimizeSpeed"  x="336" y="192" width="16" height="16" fill="black" />
<rect shape-rendering="optimizeSpeed"  x="352" y="192" width="16" height="16" fill="black" />
<rect shape-rendering="optimizeSpeed"  x="368" y="192" width="16" height="16" fill="black" />
<rect shape-rendering="optimizeSpeed"  x="384" y="192" width="16" height="16" fill="black" />
<rect shape-rendering="optimizeSpeed"  x="0" y="208" width="16" height="16" fill="black" />
<rect shape-rendering="optimizeSpeed"  x="32" y="208" width="16" height="16" fill="black" />
<rect shape-rendering="optimizeSpeed"  x="64" y="208" width="16" height="16" fill="black" />
<rect shape-rendering="optimizeSpeed"  x="112" y="208" width="16" height="16" fill="black" />
<rect shape-rendering="optimizeSpeed"  x="160" y="208" width="16" height="16" fill="black" />
<rect shape-rendering="optimizeSpeed"  x="192" y="208" width="16" height="16" fill="black" />
<rect shape-rendering="optimizeSpeed"  x="224" y="208" width="16" height="16" fill="black" />
<rect shape-rendering="optimizeSpeed"  x="256" y="208" width="16" height="16" fill="black" />
<rect shape-rendering="optimizeSpeed"  x="320" y="208" width="16" height="16" fill="black" />
<rect shape-rendering="optimizeSpeed"  x="368" y="208" width="16" height="16" fill="black" />
<rect shape-rendering="optimizeSpeed"  x="32" y="224" width="16" height="16" fill="black" />
<rect shape-rendering="optimizeSpeed"  x="96" y="224" width="16" height="16" fill="black" />
<rect shape-rendering="optimizeSpeed"  x="112" y="224" width="16" height="16" fill="black" />
<rect shape-rendering="optimizeSpeed"  x="176" y="224" width="16" height="16" fill="black" />
<rect shape-rendering="optimizeSpeed"  x="192" y="224" width="16" height="16" fill="black" />
<rect shape-rendering="optimizeSpeed"  x="208" y="224" width="16" height="16" fill="black" />
<rect shape-rendering="optimizeSpeed"  x="224" y="224" width="16" height="16" fill="black" />
<rect shape-rendering="optimizeSpeed"  x="240" y="224" width="16" height="16" fill="black" />
<rect shape-rendering="optimizeSpeed"  x="288" y="224" width="16" height="16" fill="black" />
<rect shape-rendering="optimizeSpeed"  x="304" y="224" width="16" height="16" fill="black" />
<rect shape-rendering="optimizeSpeed"  x="320" y="224" width="16" height="16" fill="black" />
<rect shape-rendering="optimizeSpeed"  x="336" y="224" width="16" height="16" fill="black" />
<rect shape-rendering="optimizeSpeed"  x="352" y="224" width="16" height="16" fill="black" />
<rect shape-rendering="optimizeSpeed"  x="48" y="240" width="16" height="16" fill="black" />
<rect shape-rendering="optimizeSpeed"  x="64" y="240" width="16" height="16" fill="black" />
<rect shape-rendering="optimizeSpeed"  x="80" y="240" width="16" height="16" fill="black" />
<rect shape-rendering="optimizeSpeed"  x="144" y="240" width="16" height="16" fill="black" />
<rect shape-rendering="optimizeSpeed"  x="176" y="240" width="16" height="16" fill="black" />
<rect shape-rendering="optimizeSpeed"  x="208" y="240" width="16" height="16" fill="black" />
<rect shape-rendering="optimizeSpeed"  x="272" y="240" width="16" height="16" fill="black" />
<rect shape-rendering="optimizeSpeed"  x="288" y="240" width="16" height="16" fill="black" />
<rect shape-rendering="optimizeSpeed"  x="304" y="240" width="16" height="16" fill="black" />
<rect shape-rendering="optimizeSpeed"  x="336" y="240" width="16" height="16" fill="black" />
<rect shape-rendering="optimizeSpeed"  x="352" y="240" width="16" height="16" fill="black" />
<rect shape-rendering="optimizeSpeed"  x="368" y="240" width="16" height="16" fill="black" />
<rect shape-rendering="optimizeSpeed"  x="0" y="256" width="16" height="16" fill="black" />
<rect shape-rendering="optimizeSpeed"  x="16" y="256" width="16" height="16" fill="black" />
<rect shape-rendering="optimizeSpeed"  x="48" y="256" width="16" height="16" fill="black" />
<rect shape-rendering="optimizeSpeed"  x="80" y="256" width="16" height="16" fill="black" />
<rect shape-rendering="optimizeSpeed"  x="96" y="256" width="16" height="16" fill="black" />
<rect shape-rendering="optimizeSpeed"  x="128" y="256" width="16" height="16" fill="black" />
<rect shape-rendering="optimizeSpeed"  x="192" y="256" width="16" height="16" fill="black" />
<rect shape-rendering="optimizeSpeed"  x="208" y="256" width="16" height="16" fill="black" />
<rect shape-rendering="optimizeSpeed"  x="240" y="256" width="16" height="16" fill="black" />
<rect shape-rendering="optimizeSpeed"  x="256" y="256" width="16" height="16" fill="black" />
<rect shape-rendering="optimizeSpeed"  x="272" y="256" width="16" height="16" fill="black" />
<rect shape-rendering="optimizeSpeed"  x="288" y="256" width="16" height="16" fill="black" />
<rect shape-rendering="optimizeSpeed"  x="304" y="256" width="16" height="16" fill="black" />
<rect shape-rendering="optimizeSpeed"  x="320" y="256" width="16" height="16" fill="black" />
<rect shape-rendering="optimizeSpeed"  x="336" y="256" width="16" height="16" fill="black" />
<rect shape-rendering="optimizeSpeed"  x="352" y="256" width="16" height="16" fill="black" />
<rect shape-rendering="optimizeSpeed"  x="128" y="272" width="16" height="16" fill="black" />
<rect shape-rendering="optimizeSpeed"  x="208" y="272" width="16" height="16" fill="black" />
<rect shape-rendering="optimizeSpeed"  x="224" y="272" width="16" height="16" fill="black" />
<rect shape-rendering="optimizeSpeed"  x="256" y="272" width="16" height="16" fill="black" />
<rect shape-rendering="optimizeSpeed"  x="320" y="272" width="16" height="16" fill="black" />
<rect shape-rendering="optimizeSpeed"  x="352" y="272" width="16" height="16" fill="black" />
<rect shape-rendering="optimizeSpeed"  x="0" y="288" width="16" height="16" fill="black" />
<rect shape-rendering="optimizeSpeed"  x="16" y="288" width="16" height="16" fill="black" />
<rect shape-rendering="optimizeSpeed"  x="32" y="288" width="16" height="16" fill="black" />
<rect shape-rendering="optimizeSpeed"  x="48" y="288" width="16" height="16" fill="black" />
<rect shape-rendering="optimizeSpeed"  x="64" y="288" width="16" height="16" fill="black" />
<rect shape-rendering="optimizeSpeed"  x="80" y="288" width="16" height="16" fill="black" />
<rect shape-rendering="optimizeSpeed"  x="96" y="288" width="16" height="16" fill="black" />
<rect shape-rendering="optimizeSpeed"  x="256" y="288" width="16" height="16" fill="black" />
<rect shape-rendering="optimizeSpeed"  x="288" y="288" width="16" height="16" fill="black" />
<rect shape-rendering="optimizeSpeed"  x="320" y="288" width="16" height="16" fill="black" />
<rect shape-rendering="optimizeSpeed"  x="336" y="288" width="16" height="16" fill="black" />
<rect shape-rendering="optimizeSpeed"  x="0" y="304" width="16" height="16" fill="black" />
<rect shape-rendering="optimizeSpeed"  x="96" y="304" width="16" height="16" fill="black" />
<rect shape-rendering="optimizeSpeed"  x="128" y="304" width="16" height="16" fill="black" />
<rect shape-rendering="optimizeSpeed"  x="144" y="304" width="16" height="16" fill="black" />
<rect shape-rendering="optimizeSpeed"  x="192" y="304" width="16" height="16" fill="black" />
<rect shape-rendering="optimizeSpeed"  x="224" y="304" width="16" height="16" fill="black" />
<rect shape-rendering="optimizeSpeed"  x="240" y="304" width="16" height="16" fill="black" />
<rect shape-rendering="optimizeSpeed"  x="256" y="304" width="16" height="16" fill="black" />
<rect shape-rendering="optimizeSpeed"  x="320" y="304" width="16" height="16" fill="black" />
<rect shape-rendering="optimizeSpeed"  x="336" y="304" width="16" height="16" fill="black" />
<rect shape-rendering="optimizeSpeed"  x="352" y="304" width="16" height="16" fill="black" />
<rect shape-rendering="optimizeSpeed"  x="368" y="304" width="16" height="16" fill="black" />
<rect shape-rendering="optimizeSpeed"  x="0" y="320" width="16" height="16" fill="black" />
<rect shape-rendering="optimizeSpeed"  x="32" y="320" width="16" height="16" fill="black" />
<rect shape-rendering="optimizeSpeed"  x="48" y="320" width="16" height="16" fill="black" />
<rect shape-rendering="optimizeSpeed"  x="64" y="320" width="16" height="16" fill="black" />
<rect shape-rendering="optimizeSpeed"  x="96" y="320" width="16" height="16" fill="black" />
<rect shape-rendering="optimizeSpeed"  x="128" y="320" width="16" height="16" fill="black" />
<rect shape-rendering="optimizeSpeed"  x="144" y="320" width="16" height="16" fill="black" />
<rect shape-rendering="optimizeSpeed"  x="176" y="320" width="16" height="16" fill="black" />
<rect shape-rendering="optimizeSpeed"  x="208" y="320" width="16" height="16" fill="black" />
<rect shape-rendering="optimizeSpeed"  x="224" y="320" width="16" height="16" fill="black" />
<rect shape-rendering="optimizeSpeed"  x="256" y="320" width="16" height="16" fill="black" />
<rect shape-rendering="optimizeSpeed"  x="272" y="320" width="16" height="16" fill="black" />
<rect shape-rendering="optimizeSpeed"  x="288" y="320" width="16" height="16" fill="black" />
<rect shape-rendering="optimizeSpeed"  x="304" y="320" width="16" height="16" fill="black" />
<rect shape-rendering="optimizeSpeed"  x="320" y="320" width="16" height="16" fill="black" />
<rect shape-rendering="optimizeSpeed"  x="352" y="320" width="16" height="16" fill="black" />
<rect shape-rendering="optimizeSpeed"  x="368" y="320" width="16" height="16" fill="black" />
<rect shape-rendering="optimizeSpeed"  x="384" y="320" width="16" height="16" fill="black" />
<rect shape-rendering="optimizeSpeed"  x="0" y="336" width="16" height="16" fill="black" />
<rect shape-rendering="optimizeSpeed"  x="32" y="336" width="16" height="16" fill="black" />
<rect shape-rendering="optimizeSpeed"  x="48" y="336" width="16" height="16" fill="black" />
<rect shape-rendering="optimizeSpeed"  x="64" y="336" width="16" height="16" fill="black" />
<rect shape-rendering="optimizeSpeed"  x="96" y="336" width="16" height="16" fill="black" />
<rect shape-rendering="optimizeSpeed"  x="144" y="336" width="16" height="16" fill="black" />
<rect shape-rendering="optimizeSpeed"  x="192" y="336" width="16" height="16" fill="black" />
<rect shape-rendering="optimizeSpeed"  x="272" y="336" width="16" height="16" fill="black" />
<rect shape-rendering="optimizeSpeed"  x="288" y="336" width="16" height="16" fill="black" />
<rect shape-rendering="optimizeSpeed"  x="304" y="336" width="16" height="16" fill="black" />
<rect shape-rendering="optimizeSpeed"  x="336" y="336" width="16" height="16" fill="black" />
<rect shape-rendering="optimizeSpeed"  x="352" y="336" width="16" height="16" fill="black" />
<rect shape-rendering="optimizeSpeed"  x="368" y="336" width="16" height="16" fill="black" />
<rect shape-rendering="optimizeSpeed"  x="384" y="336" width="16" height="16" fill="black" />
<rect shape-rendering="optimizeSpeed"  x="0" y="352" width="16" height="16" fill="black" />
<rect shape-rendering="optimizeSpeed"  x="32" y="352" width="16" height="16" fill="black" />
<rect shape-rendering="optimizeSpeed"  x="48" y="352" width="16" height="16" fill="black" />
<rect shape-rendering="optimizeSpeed"  x="64" y="352" width="16" height="16" fill="black" />
<rect shape-rendering="optimizeSpeed"  x="96" y="352" width="16" height="16" fill="black" />
<rect shape-rendering="optimizeSpeed"  x="160" y="352" width="16" height="16" fill="black" />
<rect shape-rendering="optimizeSpeed"  x="176" y="352" width="16" height="16" fill="black" />
<rect shape-rendering="optimizeSpeed"  x="192" y="352" width="16" height="16" fill="black" />
<rect shape-rendering="optimizeSpeed"  x="208" y="352" width="16" height="16" fill="black" />
<rect shape-rendering="optimizeSpeed"  x="224" y="352" width="16" height="16" fill="black" />
<rect shape-rendering="optimizeSpeed"  x="272" y="352" width="16" height="16" fill="black" />
<rect shape-rendering="optimizeSpeed"  x="288" y="352" width="16" height="16" fill="black" />
<rect shape-rendering="optimizeSpeed"  x="304" y="352" width="16" height="16" fill="black" />
<rect shape-rendering="optimizeSpeed"  x="368" y="352" width="16" height="16" fill="black" />
<rect shape-rendering="optimizeSpeed"  x="0" y="368" width="16" height="16" fill="black" />
<rect shape-rendering="optimizeSpeed"  x="96" y="368" width="16" height="16" fill="black" />
<rect shape-rendering="optimizeSpeed"  x="128" y="368" width="16" height="16" fill="black" />
<rect shape-rendering="optimizeSpeed"  x="144" y="368" width="16" height="16" fill="black" />
<rect shape-rendering="optimizeSpeed"  x="176" y="368" width="16" height="16" fill="black" />
<rect shape-rendering="optimizeSpeed"  x="208" y="368" width="16" height="16" fill="black" />
<rect shape-rendering="optimizeSpeed"  x="240" y="368" width="16" height="16" fill="black" />
<rect shape-rendering="optimizeSpeed"  x="304" y="368" width="16" height="16" fill="black" />
<rect shape-rendering="optimizeSpeed"  x="320" y="368" width="16" height="16" fill="black" />
<rect shape-rendering="optimizeSpeed"  x="336" y="368" width="16" height="16" fill="black" />
<rect shape-rendering="optimizeSpeed"  x="352" y="368" width="16" height="16" fill="black" />
<rect shape-rendering="optimizeSpeed"  x="368" y="368" width="16" height="16" fill="black" />
<rect shape-rendering="optimizeSpeed"  x="0" y="384" width="16" height="16" fill="black" />
<rect shape-rendering="optimizeSpeed"  x="16" y="384" width="16" height="16" fill="black" />
<rect shape-rendering="optimizeSpeed"  x="32" y="384" width="16" height="16" fill="black" />
<rect shape-rendering="optimizeSpeed"  x="48" y="384" width="16" height="16" fill="black" />
<rect shape-rendering="optimizeSpeed"  x="64" y="384" width="16" height="16" fill="black" />
<rect shape-rendering="optimizeSpeed"  x="80" y="384" width="16" height="16" fill="black" />
<rect shape-rendering="optimizeSpeed"  x="96" y="384" width="16" height="16" fill="black" />
<rect shape-rendering="optimizeSpeed"  x="128" y="384" width="16" height="16" fill="black" />
<rect shape-rendering="optimizeSpeed"  x="192" y="384" width="16" height="16" fill="black" />
<rect shape-rendering="optimizeSpeed"  x="208" y="384" width="16" height="16" fill="black" />
<rect shape-rendering="optimizeSpeed"  x="240" y="384" width="16" height="16" fill="black" />
<rect shape-rendering="optimizeSpeed"  x="272" y="384" width="16" height="16" fill="black" />
<rect shape-rendering="optimizeSpeed"  x="352" y="384" width="16" height="16" fill="black" />
<rect shape-rendering="optimizeSpeed"  x="368" y="384" width="16" height="16" fill="black" />
<rect shape-rendering="optimizeSpeed"  x="384" y="384" width="16" height="16" fill="black" /></svg>